<svg xmlns="http://www.w3.org/2000/svg" xmlns:xlink="http://www.w3.org/1999/xlink" viewBox="0 0 3710 3710"><defs><style>.cls-1{fill:url(#linear-gradient);}.cls-2{fill:url(#linear-gradient-2);}.cls-3{isolation:isolate;}.cls-4{fill:#f4f7fa;}.cls-5{fill:#97a6b7;}.cls-6{fill:#d8dee8;}.cls-7{clip-path:url(#clip-path);}.cls-15,.cls-35,.cls-8{mix-blend-mode:soft-light;}.cls-9{fill:#fcfdfe;}.cls-10{clip-path:url(#clip-path-2);}.cls-11{fill:url(#linear-gradient-5);}.cls-12{fill:url(#linear-gradient-6);}.cls-13{fill:url(#linear-gradient-7);}.cls-14,.cls-15,.cls-35{fill:#fff;}.cls-15{opacity:0.48;}.cls-16{fill:url(#linear-gradient-8);}.cls-17,.cls-35{opacity:0.3;}.cls-17,.cls-38{mix-blend-mode:multiply;}.cls-17{fill:url(#linear-gradient-9);}.cls-18{opacity:0.75;}.cls-19{fill:url(#linear-gradient-10);}.cls-20{fill:url(#linear-gradient-11);}.cls-21{fill:url(#linear-gradient-12);}.cls-22{fill:url(#linear-gradient-13);}.cls-23{fill:url(#linear-gradient-14);}.cls-24{fill:url(#linear-gradient-15);}.cls-25{fill:url(#linear-gradient-16);}.cls-26{fill:url(#linear-gradient-17);}.cls-27{fill:url(#linear-gradient-18);}.cls-28{fill:url(#linear-gradient-19);}.cls-29{fill:url(#linear-gradient-20);}.cls-30{fill:url(#linear-gradient-21);}.cls-31{fill:url(#linear-gradient-22);}.cls-32{fill:url(#linear-gradient-23);}.cls-33{fill:url(#linear-gradient-24);}.cls-34{fill:url(#linear-gradient-25);}.cls-36{fill:url(#linear-gradient-26);}.cls-37{fill:url(#linear-gradient-27);}.cls-38{opacity:0.4;fill:url(#linear-gradient-28);}.cls-39{fill:url(#linear-gradient-29);}.cls-40{fill:url(#linear-gradient-30);}.cls-41{fill:url(#linear-gradient-31);}.cls-42{fill:url(#linear-gradient-32);}.cls-43{fill:url(#linear-gradient-33);}.cls-44{fill:url(#linear-gradient-34);}.cls-45{fill:url(#linear-gradient-35);}</style><linearGradient id="linear-gradient" x1="1594.42" y1="1560.75" x2="171.24" y2="3306.15" gradientUnits="userSpaceOnUse"><stop offset="0" stop-color="#aa80f9"/><stop offset="0.2" stop-color="#9b7bf2"/><stop offset="1" stop-color="#6165d7"/></linearGradient><linearGradient id="linear-gradient-2" x1="612.57" y1="1673.53" x2="1683.05" y2="3435.81" gradientUnits="userSpaceOnUse"><stop offset="0" stop-color="#e38ddd"/><stop offset="1" stop-color="#9571f6"/></linearGradient><clipPath id="clip-path"><path class="cls-1" d="M1075,2763.32c-22.61,37.47-62,88.35-104.65,147.36l711.81,103.06C1602.55,2797,1490.3,2569.33,1658,2193c78.67-176.64,287.76-487.18,201.7-694.27-98.05-235.94-292-134.06-341.26-316.73-76.93-285.5-320-484.11-581-342.22-257.68,140-249,651.7,90.5,1211.45C1226,2480.33,1193.06,2567.64,1075,2763.32Z"/></clipPath><clipPath id="clip-path-2"><path class="cls-2" d="M1079.71,1976.56c3.87,330.44,163.25,221.56,310.21,254.17,169.61,245.4,185.59,473.09-67.65,669.71l-282.17-42.22c-104.7-4.86-227.55-36.86-220.61-176.27,7.84-157.67,45.12-257.81-132.84-335.25S432.23,2128,504.3,1967.27c75.84-169.12-102.05-397.09,28-510.41C758.78,1259.42,1075.68,1632.48,1079.71,1976.56Z"/></clipPath><linearGradient id="linear-gradient-5" x1="1720.04" y1="3109.1" x2="1542.84" y2="3183.52" gradientUnits="userSpaceOnUse"><stop offset="0" stop-color="#40447e"/><stop offset="1" stop-color="#3c3b6b"/></linearGradient><linearGradient id="linear-gradient-6" x1="1431.73" y1="2321.36" x2="1248.01" y2="2398.52" xlink:href="#linear-gradient-5"/><linearGradient id="linear-gradient-7" x1="654.72" y1="2365.84" x2="2328.98" y2="2365.84" xlink:href="#linear-gradient-5"/><linearGradient id="linear-gradient-8" x1="654.72" y1="3030.86" x2="3176.92" y2="3030.86" xlink:href="#linear-gradient-5"/><linearGradient id="linear-gradient-9" x1="902.07" y1="3010.01" x2="2750.07" y2="3010.01" xlink:href="#linear-gradient-5"/><linearGradient id="linear-gradient-10" x1="3299.99" y1="487.08" x2="3013.9" y2="762.06" gradientUnits="userSpaceOnUse"><stop offset="0" stop-color="#311944"/><stop offset="1" stop-color="#a03976"/></linearGradient><linearGradient id="linear-gradient-11" x1="2519.74" y1="1392.23" x2="2030.95" y2="2206.87" gradientUnits="userSpaceOnUse"><stop offset="0" stop-color="#ff9085"/><stop offset="1" stop-color="#fb6fbb"/></linearGradient><linearGradient id="linear-gradient-12" x1="2965.35" y1="1455.36" x2="2175.53" y2="-132.8" xlink:href="#linear-gradient-11"/><linearGradient id="linear-gradient-13" x1="2372.8" y1="1147.26" x2="3135.42" y2="1147.26" gradientUnits="userSpaceOnUse"><stop offset="0" stop-color="#311944"/><stop offset="1" stop-color="#893976"/></linearGradient><linearGradient id="linear-gradient-14" x1="2963.83" y1="681.13" x2="2404.49" y2="1552.72" gradientUnits="userSpaceOnUse"><stop offset="0" stop-color="#fcb148"/><stop offset="0.05" stop-color="#fdba46"/><stop offset="0.14" stop-color="#ffc244"/><stop offset="0.32" stop-color="#ffc444"/><stop offset="0.48" stop-color="#fdb946"/><stop offset="0.78" stop-color="#f99c4d"/><stop offset="0.87" stop-color="#f8924f"/><stop offset="1" stop-color="#f8924f"/></linearGradient><linearGradient id="linear-gradient-15" x1="2582.4" y1="1605.19" x2="2788.29" y2="1124.78" xlink:href="#linear-gradient-13"/><linearGradient id="linear-gradient-16" x1="3060.32" y1="743.36" x2="2500.99" y2="1614.96" xlink:href="#linear-gradient-14"/><linearGradient id="linear-gradient-17" x1="2505.22" y1="1572.12" x2="2711.11" y2="1091.71" xlink:href="#linear-gradient-13"/><linearGradient id="linear-gradient-18" x1="1171.89" y1="2671.81" x2="1272.14" y2="2671.81" gradientUnits="userSpaceOnUse"><stop offset="0" stop-color="#444b8c"/><stop offset="1" stop-color="#26264f"/></linearGradient><linearGradient id="linear-gradient-19" x1="2593.49" y1="2044.42" x2="2132.29" y2="2312.15" xlink:href="#linear-gradient-14"/><linearGradient id="linear-gradient-20" x1="2597.3" y1="2074.39" x2="2162.85" y2="2326.58" xlink:href="#linear-gradient-14"/><linearGradient id="linear-gradient-21" x1="-339.47" y1="1369.63" x2="-566.65" y2="1656.61" gradientTransform="translate(2144.86 739.61) rotate(-26)" xlink:href="#linear-gradient-18"/><linearGradient id="linear-gradient-22" x1="2111.12" y1="1698.16" x2="2425.59" y2="1698.16" gradientUnits="userSpaceOnUse"><stop offset="0" stop-color="#ffc444"/><stop offset="1" stop-color="#f36f56"/></linearGradient><linearGradient id="linear-gradient-23" x1="942.4" y1="1584.04" x2="2337.23" y2="1584.04" xlink:href="#linear-gradient-14"/><linearGradient id="linear-gradient-24" x1="2136.66" y1="1803.86" x2="1225.39" y2="2827.45" xlink:href="#linear-gradient-14"/><linearGradient id="linear-gradient-25" x1="1355.08" y1="1703.23" x2="2179.07" y2="1703.23" xlink:href="#linear-gradient-18"/><linearGradient id="linear-gradient-26" x1="864.23" y1="1696.62" x2="1178.71" y2="1696.62" xlink:href="#linear-gradient-22"/><linearGradient id="linear-gradient-27" x1="828.32" y1="1696.62" x2="965.84" y2="1696.62" xlink:href="#linear-gradient-22"/><linearGradient id="linear-gradient-28" x1="1065.33" y1="2423.71" x2="1835.35" y2="2423.71" xlink:href="#linear-gradient-14"/><linearGradient id="linear-gradient-29" x1="1476.08" y1="3429.21" x2="1587.47" y2="2567.35" gradientUnits="userSpaceOnUse"><stop offset="0" stop-color="#fcb148"/><stop offset="0.05" stop-color="#fdba46"/><stop offset="0.14" stop-color="#ffc244"/><stop offset="0.32" stop-color="#ffc444"/><stop offset="0.4" stop-color="#fec045"/><stop offset="0.71" stop-color="#faa34b"/><stop offset="0.87" stop-color="#f8924f"/><stop offset="1" stop-color="#f8924f"/></linearGradient><linearGradient id="linear-gradient-30" x1="1673.15" y1="2330.05" x2="2006.57" y2="2330.05" gradientTransform="translate(-287.1 -338.98) rotate(11.55)" xlink:href="#linear-gradient-14"/><linearGradient id="linear-gradient-31" x1="4150.01" y1="1642.55" x2="4330.02" y2="1642.55" gradientTransform="matrix(0.71, 0.7, -0.7, 0.71, -612.73, -1564.5)" xlink:href="#linear-gradient-18"/><linearGradient id="linear-gradient-32" x1="5194.61" y1="17.89" x2="5528.06" y2="17.89" gradientTransform="matrix(0.27, 0.96, -0.96, 0.27, -392.8, -2659.1)" xlink:href="#linear-gradient-14"/><linearGradient id="linear-gradient-33" x1="-1533.19" y1="427.45" x2="-1760.38" y2="714.42" gradientTransform="matrix(0.71, -0.7, 0.7, 0.71, 1678.82, 902.47)" xlink:href="#linear-gradient-18"/><linearGradient id="linear-gradient-34" x1="2696.78" y1="1810.03" x2="2553.86" y2="1893.24" xlink:href="#linear-gradient-18"/><linearGradient id="linear-gradient-35" x1="2543.59" y1="1880.99" x2="2857.69" y2="1880.99" xlink:href="#linear-gradient-18"/></defs><g class="cls-3"><g id="Illustration"><path class="cls-4" d="M2919.34,2850.46c-73,75.21-138.25,119.42-188.24,152.79C2243.6,3328.77,1686.33,3235,1514,3202.88c-278-51.74-512.63-88.24-714.24-270.38C341.69,2518.62,364,1655.22,714,1120.39c41.5-63.42,391-581.52,949.5-654.52,13.66-1.79,23.85-2.81,32.78-3.75,86.39-9.15,621.77-57.43,1058.31,308.31,62.49,52.35,163.05,146.78,256.31,290.81C3351.91,1587.86,3353,2403.47,2919.34,2850.46Z"/><path class="cls-5" d="M2740.73,1469l-77.6.13a553.12,553.12,0,0,0-36-146.7l65.62-38.05c17.93-10.4,24.06-33.85,13.72-52.44l-27.57-49.58c-10.4-18.71-33.49-25.57-51.61-15.29l-64.8,36.78a570.05,570.05,0,0,0-106.92-113.14l37.27-64c10.69-18.37,4.35-42.55-14.2-54.06L2429,941.84c-18.76-11.64-42.82-6.14-53.71,12.34L2338,1017.54a580.79,580.79,0,0,0-154.57-47.13V895.27c0-22.17-18.24-41-40.8-42l-60.4-2.76c-22.85-1-41.44,16.28-41.44,38.69v76a587.25,587.25,0,0,0-161.85,37l-40.32-68.68c-11.84-20.19-38.16-28-58.81-17.42l-55.23,28.33c-20.88,10.71-28,35.91-16,56.23l41.77,70.27a583.14,583.14,0,0,0-121.21,114.89L1553.59,1143c-21.42-12.12-48.91-5.84-61.36,14.1l-33.21,53.2c-12.54,20.07-5.1,46.11,16.57,58.11l78.18,43.26a558.17,558.17,0,0,0-42.69,159.39l-93.78.16c-25.24,0-45.77,19.18-45.77,42.73v62.64c0,23.55,20.53,42.39,45.77,42.08l96.27-1.2a553,553,0,0,0,47,155l-85,48.22c-21.67,12.3-29.11,38.45-16.57,58.34l33.21,52.73c12.45,19.76,39.94,25.65,61.36,13.23l85.94-49.84a573.21,573.21,0,0,0,118.6,106l-49.55,84c-12.08,20.49-4.91,45.6,16,56l55.23,27.54c20.65,10.3,47,2.1,58.81-18.25l49.14-84.41a583.3,583.3,0,0,0,153,31.72v94.1c0,22.42,18.59,39.47,41.44,38.11l60.4-3.62c22.56-1.34,40.8-20.41,40.8-42.57v-93.08a587.22,587.22,0,0,0,146.33-45.25l45.59,76.69c10.89,18.33,34.95,23.49,53.71,11.59l49.6-31.48c18.55-11.77,24.89-36,14.2-54.26l-44.26-75.4a582,582,0,0,0,104.89-107.73l73.82,40.85c18.12,10,41.21,2.83,51.61-16l27.57-50c10.34-18.73,4.21-42.1-13.72-52.24l-71.39-40.39A557.63,557.63,0,0,0,2661,1603.22l79.69-1c20.55-.25,37.15-17.61,37.15-38.76v-56.26C2777.88,1486.06,2761.28,1468.94,2740.73,1469Zm-628.26,463.08c-229.63,8.52-421.79-169.69-421.79-398.33s192.16-409.31,421.79-403.72c221.83,5.4,396.19,183.73,396.19,398.49S2334.3,1923.83,2112.47,1932.06Z"/><polygon class="cls-5" points="1855.53 913.11 1800.26 911.21 1781.2 960.76 1855.53 913.11"/><polygon class="cls-5" points="2403.59 935.99 2467.33 936.62 2467.33 983.63 2403.59 935.99"/><polygon class="cls-5" points="2646.48 1162.76 2710.01 1165.33 2694.13 1200.91 2646.48 1162.76"/><polygon class="cls-5" points="2746.22 1469.64 2810.39 1474.72 2789.43 1505.85 2746.22 1469.64"/><polygon class="cls-5" points="2639.49 1909.91 2701.75 1918.8 2709.38 1867.98 2639.49 1909.91"/><polygon class="cls-5" points="2401.25 2139.25 2457.16 2149.42 2461.61 2108.12 2401.25 2139.25"/><polygon class="cls-5" points="2121.72 2238.36 2071.53 2229.47 2114.73 2165.3 2121.72 2238.36"/><polygon class="cls-5" points="1849.81 2184.36 1791.36 2172.29 1836.47 2117.65 1849.81 2184.36"/><polygon class="cls-5" points="1521.36 1137.38 1582.35 1139.28 1558.2 1183.75 1521.36 1137.38"/><polygon class="cls-5" points="1400.01 1615.76 1455.92 1624.02 1451.47 1578.28 1400.01 1615.76"/><polygon class="cls-5" points="1520.09 1950.57 1574.72 1959.46 1579.17 1923.25 1520.09 1950.57"/><path class="cls-6" d="M2803.43,1474l-78.24.13a557.35,557.35,0,0,0-36.31-147.89L2755,1287.9c18.08-10.49,24.26-34.13,13.84-52.87l-27.8-50c-10.49-18.86-33.77-25.78-52-15.41l-65.34,37.07a575.67,575.67,0,0,0-107.8-114.06l37.57-64.54c10.79-18.52,4.39-42.89-14.32-54.49l-50-31C2470.23,930.85,2446,936.39,2435,955l-37.66,63.89a585.31,585.31,0,0,0-155.85-47.52V895.63c0-22.35-18.39-41.3-41.14-42.34l-60.9-2.78c-23-1-41.78,16.41-41.78,39V966.1a592.69,592.69,0,0,0-163.2,37.29l-40.65-69.24c-11.94-20.34-38.47-28.23-59.29-17.56l-55.69,28.56c-21.06,10.8-28.29,36.21-16.11,56.7l42.12,70.83a588.1,588.1,0,0,0-122.21,115.83l-76.18-43.1c-21.6-12.21-49.32-5.88-61.87,14.22l-33.49,53.63c-12.64,20.23-5.13,46.49,16.71,58.58l78.83,43.62a562.55,562.55,0,0,0-43,160.69l-94.56.16c-25.45,0-46.15,19.33-46.15,43.08v63.15c0,23.74,20.7,42.73,46.15,42.42l97.07-1.21A557.19,557.19,0,0,0,1613.48,1780l-85.68,48.62c-21.84,12.39-29.35,38.76-16.71,58.81l33.49,53.16c12.55,19.92,40.27,25.86,61.87,13.34l86.65-50.25a578,578,0,0,0,119.58,106.87l-50,84.73c-12.18,20.66-5,46,16.11,56.47l55.69,27.77c20.82,10.38,47.35,2.12,59.29-18.4l49.55-85.1a588.08,588.08,0,0,0,154.3,32v94.87c0,22.6,18.74,39.79,41.78,38.41l60.9-3.64c22.75-1.36,41.14-20.57,41.14-42.92v-93.84A591.93,591.93,0,0,0,2389,2055.25l46,77.32c11,18.47,35.24,23.67,54.15,11.67l50-31.73c18.71-11.87,25.11-36.33,14.32-54.7l-44.62-76a587.12,587.12,0,0,0,105.76-108.61l74.43,41.18c18.27,10.11,41.55,2.86,52-16.14l27.8-50.39c10.42-18.88,4.24-42.44-13.84-52.67l-72-40.71a562.87,562.87,0,0,0,40-145.09l80.35-1c20.71-.26,37.46-17.76,37.46-39.08v-56.72C2840.89,1491.24,2824.14,1474,2803.43,1474ZM2170,1940.88c-231.53,8.59-425.29-171.08-425.29-401.58s193.76-412.64,425.29-407c223.66,5.44,399.48,185.23,399.48,401.74S2393.62,1932.58,2170,1940.88Z"/><path class="cls-5" d="M2995.36,2541.7l-41.75-7.77a302.84,302.84,0,0,0-4.55-82.53l39.13-13.83c10.69-3.79,16.36-15.78,12.67-26.82L2991,2381.3c-3.7-11.11-15.43-17.13-26.21-13.43l-38.56,13.23a312.6,312.6,0,0,0-46.08-71.64l26.51-30.66c7.6-8.8,6.63-22.45-2.18-30.51L2881,2226.73c-8.91-8.15-22.41-7.62-30.13,1.22l-26.49,30.3A317.27,317.27,0,0,0,2746,2217.3l7.59-40.41c2.24-11.93-5.67-23.88-17.7-26.71l-32.2-7.58c-12.19-2.87-23.93,4.57-26.19,16.62l-7.67,40.86a321.27,321.27,0,0,0-90.78,3.55l-14.75-41a24.73,24.73,0,0,0-29.87-15.3l-32.56,9.66a21.67,21.67,0,0,0-14.27,28.63l15.37,42a319.39,319.39,0,0,0-76.79,49.55l-36.31-30.62c-10.3-8.68-25.72-8.07-34.42,1.39l-23.24,25.26c-8.76,9.53-7.39,24.29,3,32.92l37.68,31.16a305.58,305.58,0,0,0-39.06,81.41l-50.45-9.38c-13.57-2.52-26.54,5.69-28.92,18.36l-6.33,33.69c-2.38,12.66,6.76,24.87,20.37,27.25l51.89,9.07a302.5,302.5,0,0,0,9.63,88.09l-50.57,17.35c-12.89,4.43-19.53,17.74-14.8,29.7l12.54,31.71c4.7,11.89,18.88,17.83,31.66,13.32l51.25-18.13a313.6,313.6,0,0,0,53.08,69l-35.14,40.2c-8.56,9.8-7.24,24,2.94,31.73l26.92,20.39c10.07,7.63,25.05,5.87,33.47-3.87l34.95-40.44a318.67,318.67,0,0,0,79.1,32.51l-9.5,50.61c-2.27,12,6,23.1,18.44,24.68l32.84,4.15c12.27,1.56,24-6.85,26.24-18.78l9.4-50a321.31,321.31,0,0,0,83.26-9.56l16.78,45.85c4,10.95,16.43,16.15,27.71,11.65l29.86-11.92c11.16-4.46,17-16.87,13.11-27.75l-16.19-45a318.44,318.44,0,0,0,67.29-47.35l35.57,29.42c8.74,7.23,21.88,5.69,29.38-3.4l19.87-24.09c7.45-9,6.51-22.22-2.11-29.49l-34.31-28.92a305.49,305.49,0,0,0,35.88-73.39l43,7.51c11.07,1.94,21.75-5.72,23.89-17.1l5.68-30.25C3013.61,2554.63,3006.41,2543.75,2995.36,2541.7Zm-384.63,185.61c-124.36-18.6-209.71-133.85-186.62-256.81s144.67-200.72,267.6-174.53c118.75,25.3,194.52,138.81,172.83,254.31S2730.85,2745.28,2610.73,2727.31Z"/><polygon class="cls-5" points="2575.42 2153.38 2545.89 2146.78 2530.64 2171.5 2575.42 2153.38"/><polygon class="cls-5" points="2867.86 2221.02 2902.07 2227.79 2897.32 2253.08 2867.86 2221.02"/><polygon class="cls-5" points="2975.59 2367.5 3009.49 2375.3 2997.36 2392.82 2975.59 2367.5"/><polygon class="cls-5" points="2998.24 2542.61 3032.24 2551.82 3017.82 2566.45 2998.24 2542.61"/><polygon class="cls-5" points="2896.39 2768.61 2928.98 2779.68 2938.21 2753.11 2896.39 2768.61"/><polygon class="cls-5" points="2745.11 2867.89 2774.16 2879 2780.72 2857.24 2745.11 2867.89"/><polygon class="cls-5" points="2584.78 2892.97 2558.68 2883.12 2588.39 2852.97 2584.78 2892.97"/><polygon class="cls-5" points="2444 2836.47 2413.78 2824.08 2443.56 2799.25 2444 2836.47"/><polygon class="cls-5" points="2373.06 2240.25 2405.67 2247.43 2388.2 2268.91 2373.06 2240.25"/><polygon class="cls-5" points="2259.51 2485.27 2288.74 2495.36 2290.97 2470.31 2259.51 2485.27"/><polygon class="cls-5" points="2290.28 2677.45 2318.76 2687.75 2324.81 2668.73 2290.28 2677.45"/><path class="cls-6" d="M3028.57,2550.74l-42.1-7.83a304.89,304.89,0,0,0-4.59-83.2l39.45-13.95c10.79-3.82,16.5-15.91,12.79-27l-9.91-29.69c-3.73-11.2-15.56-17.27-26.43-13.54l-38.88,13.34a314.68,314.68,0,0,0-46.46-72.22l26.72-30.92c7.67-8.87,6.69-22.62-2.19-30.75l-23.77-21.74c-9-8.22-22.59-7.68-30.38,1.23l-26.7,30.55a320.3,320.3,0,0,0-79-41.29l7.65-40.74c2.26-12-5.72-24.07-17.85-26.93l-32.47-7.64c-12.29-2.89-24.13,4.61-26.41,16.76l-7.73,41.19a324,324,0,0,0-91.53,3.57l-14.87-41.34a24.93,24.93,0,0,0-30.12-15.43l-32.83,9.74a21.85,21.85,0,0,0-14.39,28.86l15.5,42.35a322,322,0,0,0-77.42,50L2418,2253.16c-10.38-8.75-25.92-8.14-34.7,1.4L2359.88,2280c-8.84,9.61-7.45,24.49,3.07,33.19l38,31.42a308.08,308.08,0,0,0-39.37,82.07l-50.87-9.46c-13.69-2.54-26.77,5.74-29.16,18.51l-6.38,34c-2.4,12.77,6.82,25.08,20.53,27.48l52.33,9.15a304.58,304.58,0,0,0,9.71,88.8l-51,17.49c-13,4.47-19.69,17.89-14.92,29.95l12.64,32c4.74,12,19,18,31.92,13.42l51.68-18.28a316.31,316.31,0,0,0,53.52,69.55l-35.42,40.53c-8.64,9.88-7.31,24.22,3,32l27.14,20.56c10.15,7.68,25.25,5.92,33.75-3.91l35.24-40.77a321.52,321.52,0,0,0,79.75,32.78l-9.58,51c-2.28,12.15,6.06,23.29,18.59,24.88l33.12,4.19c12.37,1.57,24.2-6.91,26.46-18.93l9.47-50.47a324,324,0,0,0,84-9.63l16.91,46.22c4,11.05,16.57,16.29,28,11.75l30.1-12c11.26-4.49,17.17-17,13.22-28l-16.32-45.39a320.76,320.76,0,0,0,67.84-47.73l35.87,29.66c8.8,7.28,22.06,5.73,29.62-3.43l20-24.28c7.52-9.11,6.57-22.4-2.12-29.73l-34.6-29.16a307.86,307.86,0,0,0,36.17-74L3015,2623c11.16,2,21.93-5.76,24.08-17.23l5.73-30.5C3047,2563.78,3039.71,2552.81,3028.57,2550.74Zm-387.81,187.11c-125.39-18.75-211.45-134.94-188.18-258.9s145.87-202.36,269.81-175.95c119.74,25.51,196.14,139.95,174.28,256.39S2761.88,2756,2640.76,2737.85Z"/><path class="cls-1" d="M1075,2763.32c-22.61,37.47-62,88.35-104.65,147.36l711.81,103.06C1602.55,2797,1490.3,2569.33,1658,2193c78.67-176.64,287.76-487.18,201.7-694.27-98.05-235.94-292-134.06-341.26-316.73-76.93-285.5-320-484.11-581-342.22-257.68,140-249,651.7,90.5,1211.45C1226,2480.33,1193.06,2567.64,1075,2763.32Z"/><g class="cls-7"><g class="cls-8"><path class="cls-9" d="M1344.33,2922.72c5.14-93.49,5.25-181.92,5.36-275.54l0-31.22c-2.73-45.09-4.19-89.62-5.6-132.68-3.19-97.24-6.2-189.08-22.66-286.59-.31-5.7-.35-11.23-.37-17.09-.11-20.92-.23-42.55-12.37-63.23l-.28-.86c-48.92-515.71-205-1030-464-1528.48l3.71-1.93c259.15,498.84,415.41,1013.47,464.43,1529.56,12.48,21.53,12.6,44.58,12.71,64.92,0,5.81,0,11.29.34,16.65,16.48,97.55,19.5,189.53,22.69,286.92,1.41,43,2.87,87.53,5.6,132.69l-.05,31.34c-.11,93.68-.22,182.17-5.36,275.77Z"/><path class="cls-9" d="M1339.53,2465.41c-4.57-243.89,124.07-533.6,232.79-733.69,117.74-216.69,238.12-377.87,239.32-379.48l3.34,2.51c-1.2,1.6-121.43,162.58-239,379-108.47,199.64-236.81,488.61-232.25,731.57Z"/><path class="cls-9" d="M1175.73,1405.45c-19.28-258.53,20.37-534.32,33.4-624.95,2.49-17.33,4.13-28.78,4.06-31l4.17-.14c.08,2.49-1.2,11.53-4.11,31.75-13,90.51-52.6,366-33.36,624Z"/><path class="cls-9" d="M1268.72,1818.86c-87.24-222.73-543.35-420.21-547.95-422.18l1.65-3.84c4.61,2,462.31,200.16,550.19,424.5Z"/></g></g><path class="cls-2" d="M1079.71,1976.56c3.87,330.44,163.25,221.56,310.21,254.17,169.61,245.4,185.59,473.09-67.65,669.71l-282.17-42.22c-104.7-4.86-227.55-36.86-220.61-176.27,7.84-157.67,45.12-257.81-132.84-335.25S432.23,2128,504.3,1967.27c75.84-169.12-102.05-397.09,28-510.41C758.78,1259.42,1075.68,1632.48,1079.71,1976.56Z"/><g class="cls-10"><g class="cls-8"><path class="cls-9" d="M1149.76,2567.9a2162.75,2162.75,0,0,1-303.37-425.68C762.17,1987.31,698,1823.92,655.6,1656.59a1975.64,1975.64,0,0,1-51-290.56l4.25-.42a1971.28,1971.28,0,0,0,50.88,289.93c42.29,167,106.35,330,190.4,484.64A2158.49,2158.49,0,0,0,1152.91,2565Z"/><path class="cls-9" d="M846.06,2749.39l-1.94-3.81c52.41-26.69,114.23-47.51,183.74-61.88a714.63,714.63,0,0,1,97.81-13.42l.28,4.26a709,709,0,0,0-97.22,13.35C959.58,2702.17,898.12,2722.86,846.06,2749.39Z"/><path class="cls-9" d="M901.32,2236.5c-145.71-140.95-455.87-128.07-459-127.9l-.2-4.27c3.14-.14,315.11-13.14,462.15,129.1Z"/><path class="cls-9" d="M721.65,1868.64c-43.61-224.86,124.91-484.71,126.62-487.3l3.56,2.34c-1.69,2.59-169.27,261-126,484.15Z"/></g></g><path class="cls-11" d="M3176.92,3012l-2522.2-22.17v65.59c0,17.81,11,32.94,25.9,35.64l713.21,129.17a97.1,97.1,0,0,0,25.58,1.21l1730.11-147.27c15.44-1.31,27.4-16.5,27.4-34.79Z"/><path class="cls-12" d="M2261.63,2905.62l-1580.82,120c-28.29,2.15-51.29-20.67-51.29-51V1760.79c0-30.3,23-54.86,51.29-54.86H2261.63c23.3,0,42.14,22.2,42.14,49.59V2852.83C2303.77,2880.21,2284.93,2903.85,2261.63,2905.62Z"/><path class="cls-13" d="M2286.83,2905.62,706,3025.61c-28.29,2.15-51.29-20.67-51.29-51V1760.79c0-30.3,23-54.86,51.29-54.86H2286.83c23.31,0,42.15,22.2,42.15,49.59V2852.83C2329,2880.21,2310.14,2903.85,2286.83,2905.62Z"/><path class="cls-6" d="M2237.59,2828.26,765.22,2932.49c-23,1.63-41.73-17.1-41.73-41.83V1827.92c0-24.73,18.71-44.87,41.73-45l1472.37-6.55c19.22-.08,34.77,18.11,34.77,40.64v968C2272.36,2807.53,2256.81,2826.9,2237.59,2828.26Z"/><path class="cls-14" d="M1552.25,1739.13c0,11.28-8.13,20.45-18.18,20.48s-18.23-9.1-18.23-20.41,8.17-20.47,18.23-20.48S1552.25,1727.85,1552.25,1739.13Z"/><path class="cls-15" d="M1906,2572.7c-121.87-70.43-217.69,18.81-310.17-69.24-56.06-53.38-28.54-93.19-97.53-173-76.4-88.36-126.15-58.65-202.94-138.18-97.1-100.55-48.53-178.78-132.17-251-101.46-87.58-210.88-6.52-307.47-90.51-41.65-36.23-64.51-88.89-76.45-144.9h-94.5c-16.56,0-30,14.41-30,32.2V2996.4c0,17.78,13.45,31.17,30,29.91l1611.12-122.84c7.91-.6,14.92-5.56,19.42-12.74-117.94-4.62-190.4-47.09-236.71-91C1988,2713.86,2003.67,2629.16,1906,2572.7Z"/><path class="cls-16" d="M2349.84,2900.18,654.72,3026.48l739.11,133.86a97.1,97.1,0,0,0,25.58,1.21L3176.92,3012,2376.81,2901A127.41,127.41,0,0,0,2349.84,2900.18Z"/><polygon class="cls-17" points="902.07 3029.66 2313.3 2922.94 2750.07 2982.99 1350.99 3097.07 902.07 3029.66"/><g class="cls-18"><polygon class="cls-14" points="1023.89 1866.4 861.75 1866.96 861.75 1814.5 1023.89 1814.5 1023.89 1866.4"/><polygon class="cls-14" points="1873.39 1863.43 1126.87 1866.04 1126.87 1814.5 1873.39 1814.5 1873.39 1863.43"/><polygon class="cls-14" points="1283.37 1952.6 1126.87 1954.08 1126.87 1902.54 1283.37 1901.61 1283.37 1952.6"/><polygon class="cls-14" points="2104.29 1944.84 1382.8 1951.66 1382.8 1901.01 2104.29 1896.71 2104.29 1944.84"/><polygon class="cls-14" points="1283.37 2039.71 1126.87 2042.13 1126.87 1990.58 1283.37 1988.72 1283.37 2039.71"/><polygon class="cls-14" points="2104.29 2027.06 1382.8 2038.18 1382.8 1987.53 2104.29 1978.92 2104.29 2027.06"/><polygon class="cls-14" points="1023.89 2132.37 861.75 2135.84 861.75 2083.37 1023.89 2080.47 1023.89 2132.37"/><polygon class="cls-14" points="1873.39 2114.21 1126.87 2130.17 1126.87 2078.63 1873.39 2065.27 1873.39 2114.21"/><polygon class="cls-14" points="1283.37 2213.93 1126.87 2218.21 1126.87 2166.67 1283.37 2162.94 1283.37 2213.93"/><polygon class="cls-14" points="2104.29 2191.48 1382.8 2211.22 1382.8 2160.57 2104.29 2143.35 2104.29 2191.48"/><polygon class="cls-14" points="1283.37 2301.04 1126.87 2306.26 1126.87 2254.71 1283.37 2250.05 1283.37 2301.04"/><polygon class="cls-14" points="2104.29 2273.7 1382.8 2297.73 1382.8 2247.08 2104.29 2225.57 2104.29 2273.7"/><polygon class="cls-14" points="1283.37 2388.16 1126.87 2394.3 1126.87 2342.76 1283.37 2337.16 1283.37 2388.16"/><polygon class="cls-14" points="2104.29 2355.91 1382.8 2384.25 1382.8 2333.6 2104.29 2307.78 2104.29 2355.91"/><polygon class="cls-14" points="1536.28 2463.82 1385.19 2470.66 1385.19 2420.02 1536.28 2413.71 1536.28 2463.82"/><polygon class="cls-14" points="2214.46 2433.14 1632.31 2459.48 1632.31 2409.7 2214.46 2385.4 2214.46 2433.14"/><polygon class="cls-14" points="1023.89 2575.66 861.75 2583.96 861.75 2531.49 1023.89 2523.76 1023.89 2575.66"/><polygon class="cls-14" points="1873.39 2532.16 1126.87 2570.39 1126.87 2518.85 1873.39 2483.23 1873.39 2532.16"/><polygon class="cls-14" points="1283.37 2649.49 1126.87 2658.43 1126.87 2606.89 1283.37 2598.49 1283.37 2649.49"/><polygon class="cls-14" points="2104.29 2602.56 1382.8 2643.8 1382.8 2593.15 2104.29 2554.43 2104.29 2602.56"/><polygon class="cls-14" points="1283.37 2736.6 1126.87 2746.48 1126.87 2694.93 1283.37 2685.6 1283.37 2736.6"/><polygon class="cls-14" points="2104.29 2684.77 1382.8 2730.32 1382.8 2679.67 2104.29 2636.64 2104.29 2684.77"/><polygon class="cls-14" points="1023.89 2841.64 861.75 2852.84 861.75 2800.37 1023.89 2789.73 1023.89 2841.64"/><polygon class="cls-14" points="1873.39 2782.94 1126.87 2834.52 1126.87 2782.98 1873.39 2734 1873.39 2782.94"/></g><path class="cls-19" d="M2729.14,1772.89a130.8,130.8,0,0,1-71.18-18.41c-65-39-160.95-103.26-247.31-187.44-109.59-106.83-172.55-215.42-186.33-322l-.21-1.67-2.67-455c0-89.92,58.65-162.91,168.76-210.87,91-39.63,211.56-59.26,338.94-55.57,125.9,3.64,242.41,29.62,328.64,72.9,102.5,51.46,156.28,123.77,156.28,209.5L3211.62,1239l-.19,1.6c-12.59,102.11-70.52,207.65-172.91,314.38-82.13,85.61-174.93,153.45-238.67,195.48A135.44,135.44,0,0,1,2729.14,1772.89Z"/><path class="cls-20" d="M2754.13,1772.89a127.73,127.73,0,0,1-70.24-18.41c-64.11-39-158.83-103.26-244-187.44-108.14-106.83-170.27-215.42-183.86-322l-.21-1.67-2.64-455c0-89.92,57.87-162.91,166.53-210.87,89.78-39.63,208.76-59.26,334.47-55.57,124.24,3.64,239.2,29.62,324.29,72.9,101.15,51.46,154.22,123.77,154.22,209.5L3230.23,1239l-.19,1.6c-12.42,102.11-69.59,207.65-170.62,314.38-81,85.61-172.62,153.45-235.51,195.48A132.49,132.49,0,0,1,2754.13,1772.89Z"/><path class="cls-21" d="M2283.17,788.66l2.66,452.69c29.8,231,301.24,418,419.47,489,33.86,20.35,77.16,19.14,110.79-3,115.76-76.17,372.34-267.93,399.75-490l2.44-433.54C3218.28,482.19,2283.17,452.78,2283.17,788.66Z"/><path class="cls-22" d="M2760.84,1660.6a16.14,16.14,0,0,1-8.76-2.32c-48.68-29.48-143-91.22-225.14-171.86-88.67-87.1-139.81-171.78-151.53-251.31l-2.61-445.2c.11-42.71,33.93-79.27,100.21-108.53,74-32.65,179.07-49.79,287.83-47.21,107.66,2.56,209.68,24.24,280.35,59.31,62.52,31,94.12,67.59,94.23,108.82L3133,1232.08c-10.94,77-58.94,159.94-143.22,247.16-79.24,82-171.8,147-220.18,178.63A16.74,16.74,0,0,1,2760.84,1660.6Z"/><path class="cls-23" d="M2749.73,1630.17c-49.16-30.28-136.58-88.74-212.85-163.8-83.33-82-131.55-160.71-142.89-233.53l-2.58-442.61c.08-30.54,28.15-58.55,83.23-82.94,70.1-31,170.52-47.39,275.09-45,103.56,2.32,201.17,22.78,268.25,56,52.12,25.78,78.49,53.91,78.56,83.7l-2.42,428.2c-10.64,70.65-56.12,147.92-135.66,230.09C2884.61,1536.49,2798.66,1597.84,2749.73,1630.17Z"/><path class="cls-24" d="M2925.63,1050.67l-331,2.95c-25.45.22-46.18,20.06-46.18,44.29V1310c0,24.09,20.66,42.76,46,41.73l329.87-13.51c23.46-1,42.49-20.39,42.61-43.4l1-202.62C2968.07,1069.07,2949.17,1050.46,2925.63,1050.67Z"/><path class="cls-25" d="M2805.4,1172.3c.08-23.43-20-41.94-44.58-40.39-21.73,1.37-39.76,18.92-41,40a39.87,39.87,0,0,0,21.34,37.68,14.78,14.78,0,0,1,7.42,15.78l-9.57,53.58a10.78,10.78,0,0,0,11.32,12.57l24.22-.85c7.08-.25,12.46-6.6,11.29-13.3l-9.25-53.07c-1.11-6.34,2.16-12.62,7.9-16.07C2797,1200.71,2805.36,1187.36,2805.4,1172.3Z"/><path class="cls-26" d="M2921,1029.64A17.67,17.67,0,0,1,2903,1012l.2-46.2c.2-46.4-38.16-84.58-86-85l-108.05-1.07c-49.48-.5-90.17,38.09-90.21,86l0,47.66c0,10.12-8.63,18.38-19.27,18.45s-19.32-8.11-19.32-18.27l0-47.86c0-68.42,58.29-123.36,128.89-122.38l108.1,1.51c67.91.94,122.15,55.29,121.84,121.07l-.22,46A18.07,18.07,0,0,1,2921,1029.64Z"/><path class="cls-27" d="M1223.93,2607.13s-68.72,40.09-48.22,87.3c12.33,28.4,42.4,38.35,64.42,41.78a24.5,24.5,0,0,0,28-21.81l4-39Z"/><path class="cls-28" d="M2048.85,2211.33c-4.15,38.49,23.77,149.42,62.27,153.56l317.13-42.19,15-139.4-317.21-34.17A70.1,70.1,0,0,0,2048.85,2211.33Z"/><path class="cls-29" d="M2660.07,1946a70.1,70.1,0,0,0-98.59,10.37l-200.77,248,109,88.23,200.76-248A70.1,70.1,0,0,0,2660.07,1946Z"/><circle class="cls-30" cx="2411.35" cy="2250.45" r="101.72" transform="translate(-589.89 882.35) rotate(-18.52)"/><ellipse class="cls-31" cx="2268.36" cy="1698.16" rx="157.24" ry="220.97"/><path class="cls-32" d="M1787.78,1162.72H1491.84c-303.45,0-549.44,246-549.44,549.44h0c0,161.92,131.26,293.18,293.19,293.18H2044c161.92,0,293.19-131.26,293.19-293.19h0C2337.23,1408.71,2091.23,1162.72,1787.78,1162.72Z"/><path class="cls-33" d="M1766,2772.92h-245.3c-251.51,0-455.4-203.89-455.4-455.41h0c0-134.21,108.8-243,243-243h670.09c134.21,0,243,108.8,243,243h0C2221.44,2569,2017.54,2772.92,1766,2772.92Z"/><path class="cls-34" d="M2056.41,1886.84H1493.86c-76.23,0-138.78-58.44-138.78-130.52V1645.79c0-72.09,62.55-128.53,138.78-126.1l562.55,18c68.09,2.17,122.66,58.22,122.66,125.2v102.72C2179.07,1832.54,2124.5,1886.84,2056.41,1886.84Z"/><path class="cls-14" d="M1674.1,1695.19c0,48.14-41,86.64-91.94,86-51.42-.65-93.45-40.84-93.45-89.77s42-87.41,93.45-86C1633.12,1606.88,1674.1,1647.05,1674.1,1695.19Z"/><path class="cls-14" d="M2054.27,1702.91c0,46.53-38.27,83.76-85.85,83.16-48-.61-87.21-39.41-87.21-86.67s39.22-84.47,87.21-83.13C2016,1617.6,2054.27,1656.39,2054.27,1702.91Z"/><path class="cls-35" d="M1844,1928.29c-83.66-98.31-46.49-176.92-155.86-310.13-150.5-183.3-326.07-162.56-366.28-286.87-11.14-34.45-12.42-81.73,17.46-147.09-229.22,66.12-396.88,277.45-396.88,528h0c0,161.92,131.26,293.18,293.19,293.18h704.55C1897.94,1982.35,1867.1,1955.48,1844,1928.29Z"/><ellipse class="cls-36" cx="1021.47" cy="1696.62" rx="157.24" ry="220.97"/><ellipse class="cls-37" cx="897.08" cy="1696.62" rx="68.76" ry="96.63"/><path class="cls-38" d="M1826.44,2522.21c-33.65-158.05-405.9-154.24-416-257.54-7.8-79.64,205.92-158.48,232.78-168.39,23-8.47,45.77-15.64,68.34-21.78H1308.34c-134.21,0-243,108.8-243,243h0c0,251.52,203.89,455.41,455.4,455.41H1766a459.15,459.15,0,0,0,69.32-5.24c-21.35-26.46-35.26-55.4-38.63-87C1789.26,2610.68,1839.48,2583.45,1826.44,2522.21Z"/><ellipse class="cls-39" cx="1649.43" cy="2088.03" rx="387.4" ry="46.9"/><path class="cls-40" d="M875.45,2329.51l239.88-146.18a76,76,0,0,1,101,20.19h0A76,76,0,0,1,1193,2313.87L949.7,2455.32Z"/><path class="cls-41" d="M1349.08,2518.05l10.21,60.56a28.52,28.52,0,0,1-30.63,33.1c-39.41-3.22-99.12,1-122.54,50.73a63.12,63.12,0,0,0-4,42l5.62,22.83s-110-36.23-58-160.81c40.82-97.82,138.67-82.28,178.82-71.09A28.5,28.5,0,0,1,1349.08,2518.05Z"/><path class="cls-42" d="M924.62,2366l239.15,147.37a76,76,0,0,1,27.85,99.11h0a76,76,0,0,1-108.88,29.39L846.23,2489.25Z"/><circle class="cls-43" cx="899.55" cy="2415.5" r="101.72"/><path class="cls-44" d="M2636.64,1828.07,2568,1778.66s-23.21,71-15.52,90.2,80.7,84.54,80.7,84.54-6-55.16,11.25-98.05A23,23,0,0,0,2636.64,1828.07Z"/><path class="cls-45" d="M2568,1778.66a9.29,9.29,0,0,1,8.86,12.15c-10.31,31.62-29.16,115.35,52.48,133.77,76.1,17.17,108.06-25.06,134.63-90.26a17.85,17.85,0,0,1,24.19-9.34l59.32,28.23a17.84,17.84,0,0,1,7.07,26.2c-27.81,40.29-105.85,132.64-215.6,95.13-134-45.81-91.3-163.44-79.46-190.34a9.28,9.28,0,0,1,8.51-5.54Z"/></g></g></svg>