<svg xmlns="http://www.w3.org/2000/svg" xmlns:xlink="http://www.w3.org/1999/xlink" viewBox="0 0 3710 3710"><defs><style>.cls-1{fill:url(#linear-gradient);}.cls-2{fill:url(#linear-gradient-2);}.cls-3{isolation:isolate;}.cls-4{fill:#f4f7fa;}.cls-5{fill:#97a6b7;}.cls-6{fill:#d8dee8;}.cls-7{clip-path:url(#clip-path);}.cls-16,.cls-8{mix-blend-mode:soft-light;}.cls-9{fill:#fcfdfe;}.cls-10{clip-path:url(#clip-path-2);}.cls-11{fill:url(#linear-gradient-5);}.cls-12{fill:url(#linear-gradient-6);}.cls-13{fill:url(#linear-gradient-7);}.cls-14{fill:url(#linear-gradient-8);}.cls-15,.cls-16{fill:#fff;}.cls-16{opacity:0.48;}.cls-17{fill:url(#linear-gradient-9);}.cls-18,.cls-22,.cls-26,.cls-43{opacity:0.3;}.cls-18,.cls-22,.cls-26,.cls-34,.cls-43{mix-blend-mode:multiply;}.cls-18{fill:url(#linear-gradient-10);}.cls-19{opacity:0.75;}.cls-20{fill:url(#linear-gradient-11);}.cls-21{fill:url(#linear-gradient-12);}.cls-22{fill:url(#linear-gradient-13);}.cls-23{fill:url(#linear-gradient-14);}.cls-24{fill:url(#linear-gradient-15);}.cls-25{fill:url(#linear-gradient-16);}.cls-26{fill:url(#linear-gradient-17);}.cls-27{fill:url(#linear-gradient-18);}.cls-28{fill:url(#linear-gradient-19);}.cls-29{fill:url(#linear-gradient-20);}.cls-30{fill:url(#linear-gradient-21);}.cls-31{fill:url(#linear-gradient-22);}.cls-32{fill:url(#linear-gradient-23);}.cls-33{fill:url(#linear-gradient-24);}.cls-34{opacity:0.4;fill:url(#linear-gradient-25);}.cls-35{fill:url(#linear-gradient-26);}.cls-36{fill:url(#linear-gradient-27);}.cls-37{fill:url(#linear-gradient-28);}.cls-38{fill:url(#linear-gradient-29);}.cls-39{fill:url(#linear-gradient-30);}.cls-40{fill:url(#linear-gradient-31);}.cls-41{fill:url(#linear-gradient-32);}.cls-42{fill:url(#linear-gradient-33);}.cls-43{fill:url(#linear-gradient-34);}.cls-44{fill:url(#linear-gradient-35);}.cls-45{fill:url(#linear-gradient-36);}.cls-46{fill:url(#linear-gradient-37);}.cls-47{fill:url(#linear-gradient-38);}.cls-48{fill:url(#linear-gradient-39);}</style><linearGradient id="linear-gradient" x1="1727.44" y1="1331.93" x2="263.86" y2="3126.89" gradientUnits="userSpaceOnUse"><stop offset="0" stop-color="#aa80f9"/><stop offset="0.2" stop-color="#9b7bf2"/><stop offset="1" stop-color="#6165d7"/></linearGradient><linearGradient id="linear-gradient-2" x1="717.72" y1="1447.92" x2="1818.58" y2="3260.23" gradientUnits="userSpaceOnUse"><stop offset="0" stop-color="#e38ddd"/><stop offset="1" stop-color="#9571f6"/></linearGradient><clipPath id="clip-path"><path class="cls-1" d="M1193.28,2568.65c-23.25,38.54-63.76,90.86-107.62,151.54l732,106c-81.88-222.92-197.31-457-24.91-844.1,80.91-181.65,295.94-501,207.43-714-100.84-242.64-300.33-137.86-350.94-325.71-79.12-293.61-329-497.86-597.54-351.94-265,144-256.09,670.2,93.07,1245.84C1348.51,2277.63,1314.68,2367.41,1193.28,2568.65Z"/></clipPath><clipPath id="clip-path-2"><path class="cls-2" d="M1198.12,1759.55c4,339.82,167.88,227.85,319,261.39,174.42,252.37,190.86,486.51-69.57,688.72l-290.19-43.42c-107.66-5-234-37.91-226.87-181.27,8.06-162.15,46.4-265.14-136.61-344.77S532.26,1915.27,606.37,1750c78-173.93-104.94-408.37,28.75-524.9C868.07,1022.05,1194,1405.7,1198.12,1759.55Z"/></clipPath><linearGradient id="linear-gradient-5" x1="1717.61" y1="2872.67" x2="1535.39" y2="2949.2" gradientUnits="userSpaceOnUse"><stop offset="0" stop-color="#40447e"/><stop offset="1" stop-color="#3c3b6b"/></linearGradient><linearGradient id="linear-gradient-6" x1="1421.12" y1="2062.56" x2="1232.18" y2="2141.92" xlink:href="#linear-gradient-5"/><linearGradient id="linear-gradient-7" x1="622.05" y1="2108.31" x2="2343.84" y2="2108.31" xlink:href="#linear-gradient-5"/><linearGradient id="linear-gradient-8" x1="732.65" y1="2663.38" x2="2480.47" y2="1240.11" gradientUnits="userSpaceOnUse"><stop offset="0" stop-color="#ffc444"/><stop offset="1" stop-color="#f36f56"/></linearGradient><linearGradient id="linear-gradient-9" x1="622.05" y1="2792.21" x2="3215.86" y2="2792.21" xlink:href="#linear-gradient-5"/><linearGradient id="linear-gradient-10" x1="876.42" y1="2770.76" x2="2776.88" y2="2770.76" xlink:href="#linear-gradient-5"/><linearGradient id="linear-gradient-11" x1="2645.26" y1="30.4" x2="2659.86" y2="3444.8" gradientUnits="userSpaceOnUse"><stop offset="0" stop-color="#aa80f9"/><stop offset="1" stop-color="#6165d7"/></linearGradient><linearGradient id="linear-gradient-12" x1="2652.06" y1="1430.08" x2="2654.09" y2="1905.07" gradientUnits="userSpaceOnUse"><stop offset="0" stop-color="#444b8c"/><stop offset="1" stop-color="#26264f"/></linearGradient><linearGradient id="linear-gradient-13" x1="2699.9" y1="35.88" x2="2714.46" y2="3441.42" xlink:href="#linear-gradient-11"/><linearGradient id="linear-gradient-14" x1="2048.87" y1="1172.33" x2="2357.38" y2="1172.33" xlink:href="#linear-gradient-12"/><linearGradient id="linear-gradient-15" x1="2092.12" y1="1216.8" x2="3177.34" y2="1216.8" xlink:href="#linear-gradient-11"/><linearGradient id="linear-gradient-16" x1="4173.81" y1="1261.1" x2="4846.48" y2="1261.1" gradientTransform="matrix(-1, 0, 0, 1, 7010.11, 0)" xlink:href="#linear-gradient-12"/><linearGradient id="linear-gradient-17" x1="2823.17" y1="-1788.86" x2="2846.04" y2="3560.55" xlink:href="#linear-gradient-11"/><linearGradient id="linear-gradient-18" x1="2949.03" y1="1249.74" x2="3257.55" y2="1249.74" xlink:href="#linear-gradient-12"/><linearGradient id="linear-gradient-19" x1="1482.5" y1="2045.09" x2="1438.21" y2="2821.32" xlink:href="#linear-gradient-11"/><linearGradient id="linear-gradient-20" x1="1057.74" y1="3270.76" x2="1168.45" y2="3270.76" gradientTransform="matrix(-0.96, 0.27, 0.27, 0.96, 2192.85, -308.92)" xlink:href="#linear-gradient-12"/><linearGradient id="linear-gradient-21" x1="892.42" y1="3257.28" x2="939.1" y2="3160.65" gradientTransform="matrix(-0.98, 0.2, 0.2, 0.98, 2204.06, -227.18)" xlink:href="#linear-gradient-8"/><linearGradient id="linear-gradient-22" x1="1231.18" y1="3263.63" x2="1341.89" y2="3263.63" gradientTransform="matrix(-0.96, 0.27, 0.27, 0.96, 2192.85, -308.92)" xlink:href="#linear-gradient-12"/><linearGradient id="linear-gradient-23" x1="1065.94" y1="3262.14" x2="1112.62" y2="3165.51" gradientTransform="matrix(-0.98, 0.2, 0.2, 0.98, 2204.06, -227.18)" xlink:href="#linear-gradient-8"/><linearGradient id="linear-gradient-24" x1="1288.21" y1="2034" x2="1243.92" y2="2810.24" xlink:href="#linear-gradient-11"/><linearGradient id="linear-gradient-25" x1="1064.06" y1="2649.23" x2="1331.22" y2="2310.95" xlink:href="#linear-gradient-11"/><linearGradient id="linear-gradient-26" x1="1028.52" y1="2019.19" x2="984.23" y2="2795.42" xlink:href="#linear-gradient-11"/><linearGradient id="linear-gradient-27" x1="1446.68" y1="3055.63" x2="1818.62" y2="2584.67" gradientUnits="userSpaceOnUse"><stop offset="0" stop-color="#ff9085"/><stop offset="1" stop-color="#fb6fbb"/></linearGradient><linearGradient id="linear-gradient-28" x1="1668.15" y1="2620.64" x2="1236.63" y2="3098.63" xlink:href="#linear-gradient-27"/><linearGradient id="linear-gradient-29" x1="1465.12" y1="2745.1" x2="1404.53" y2="2573.44" gradientUnits="userSpaceOnUse"><stop offset="0" stop-color="#311944"/><stop offset="1" stop-color="#893976"/></linearGradient><linearGradient id="linear-gradient-30" x1="1200.44" y1="2496.39" x2="1222.66" y2="2649.88" xlink:href="#linear-gradient-29"/><linearGradient id="linear-gradient-31" x1="1193.78" y1="2530.02" x2="1319.33" y2="2530.02" xlink:href="#linear-gradient-8"/><linearGradient id="linear-gradient-32" x1="1640.63" y1="2509.83" x2="1522.5" y2="2342.1" xlink:href="#linear-gradient-12"/><linearGradient id="linear-gradient-33" x1="1414.05" y1="2787.43" x2="1672.55" y2="2262.34" xlink:href="#linear-gradient-29"/><linearGradient id="linear-gradient-34" x1="1287.77" y1="2450.41" x2="1855.67" y2="2450.41" xlink:href="#linear-gradient-29"/><linearGradient id="linear-gradient-35" x1="1644.18" y1="1836.49" x2="1656.69" y2="1503.37" gradientTransform="translate(399.6 -184.89) rotate(23.5)" xlink:href="#linear-gradient-8"/><linearGradient id="linear-gradient-36" x1="848.19" y1="1900.18" x2="763.4" y2="1684.83" gradientTransform="matrix(-0.97, -0.25, -0.25, 0.97, 2456.19, 427.31)" gradientUnits="userSpaceOnUse"><stop offset="0" stop-color="#311944"/><stop offset="1" stop-color="#6b3976"/></linearGradient><linearGradient id="linear-gradient-37" x1="628.08" y1="1735.88" x2="624.18" y2="2050.07" gradientTransform="matrix(0.98, 0.19, -0.19, 0.98, 983.78, 102.06)" xlink:href="#linear-gradient-8"/><linearGradient id="linear-gradient-38" x1="822.28" y1="1910.49" x2="737.41" y2="1694.93" xlink:href="#linear-gradient-36"/><linearGradient id="linear-gradient-39" x1="739.21" y1="1780.61" x2="743.63" y2="1819.96" gradientTransform="matrix(-0.97, -0.25, -0.25, 0.97, 2456.19, 427.31)" gradientUnits="userSpaceOnUse"><stop offset="0" stop-color="#ffc444"/><stop offset="1" stop-color="#f36f56"/></linearGradient></defs><g class="cls-3"><g id="Illustration"><path class="cls-4" d="M3221.44,1651C3145.12,1151.42,2832.22,537.7,2214,473.48c0,0-469.35-57.09-932,29.43-274.6,51.35-515.38,204.22-667.74,423.92s-203.25,487.61-141.49,743c40.12,165.89,67.22,337.58,59.78,508-12.94,296.68-5.49,573.6,282.42,750.53,257.08,158,580.61,297.31,889.27,321.71,209.76,16.59,445-10.25,647.16-64.86C3381.71,2907,3297.76,2150.51,3221.44,1651Z"/><path class="cls-5" d="M2767.28,1186l-79.8.14a569.05,569.05,0,0,0-37-150.86l67.47-39.13c18.44-10.7,24.75-34.82,14.12-53.93l-28.35-51c-10.7-19.23-34.45-26.29-53.08-15.72L2584,913.3A586.82,586.82,0,0,0,2474,797l38.33-65.83c11-18.9,4.47-43.76-14.6-55.59l-51-31.65c-19.28-12-44-6.31-55.22,12.69l-38.42,65.16a597.19,597.19,0,0,0-158.95-48.47V596c0-22.79-18.76-42.13-42-43.19L2090.06,550c-23.51-1.08-42.62,16.74-42.62,39.78v78.13a604.08,604.08,0,0,0-166.45,38l-41.46-70.63c-12.18-20.76-39.24-28.8-60.48-17.91l-56.8,29.13c-21.48,11-28.85,36.94-16.43,57.83l43,72.26a599.77,599.77,0,0,0-124.65,118.15l-77.7-44c-22-12.46-50.29-6-63.1,14.5L1449.18,920c-12.89,20.64-5.24,47.43,17,59.76l80.4,44.49a574.12,574.12,0,0,0-43.9,163.92l-96.44.16c-26,0-47.07,19.72-47.07,43.94v64.42c0,24.22,21.11,43.6,47.07,43.27l99-1.23a568.63,568.63,0,0,0,48.33,159.37l-87.39,49.59c-22.28,12.65-29.93,39.54-17,60l34.15,54.22c12.81,20.33,41.07,26.39,63.1,13.61l88.39-51.25a589.56,589.56,0,0,0,122,109l-51,86.44c-12.42,21.07-5,46.89,16.43,57.6l56.8,28.32c21.24,10.59,48.3,2.16,60.48-18.77l50.53-86.81a599.49,599.49,0,0,0,157.38,32.63v96.77c0,23,19.11,40.59,42.62,39.19l62.11-3.72c23.2-1.38,42-21,42-43.78v-95.72a604.05,604.05,0,0,0,150.48-46.53l46.89,78.87c11.2,18.84,35.94,24.15,55.22,11.91l51-32.37c19.07-12.11,25.6-37.07,14.6-55.8L2466.83,1704a598.25,598.25,0,0,0,107.86-110.8l75.92,42c18.63,10.31,42.38,2.91,53.08-16.47l28.35-51.39c10.63-19.27,4.32-43.3-14.12-53.73L2644.51,1472a574,574,0,0,0,40.82-148l82-1c21.13-.26,38.2-18.11,38.2-39.86v-57.85C2805.48,1203.55,2788.41,1186,2767.28,1186Zm-646.1,476.24C1885,1671,1687.42,1487.7,1687.42,1252.58S1885,831.65,2121.18,837.39c228.13,5.55,407.44,188.95,407.44,409.81S2349.31,1653.75,2121.18,1662.22Z"/><polygon class="cls-5" points="1856.94 614.34 1800.1 612.38 1780.5 663.34 1856.94 614.34"/><polygon class="cls-5" points="2420.57 637.86 2486.11 638.51 2486.11 686.86 2420.57 637.86"/><polygon class="cls-5" points="2670.36 871.08 2735.69 873.72 2719.36 910.3 2670.36 871.08"/><polygon class="cls-5" points="2772.93 1186.67 2838.92 1191.89 2817.36 1223.91 2772.93 1186.67"/><polygon class="cls-5" points="2663.17 1639.43 2727.2 1648.58 2735.04 1596.31 2663.17 1639.43"/><polygon class="cls-5" points="2418.16 1875.29 2475.66 1885.74 2480.23 1843.28 2418.16 1875.29"/><polygon class="cls-5" points="2130.69 1977.21 2079.08 1968.06 2123.51 1902.08 2130.69 1977.21"/><polygon class="cls-5" points="1851.06 1921.68 1790.96 1909.26 1837.34 1853.08 1851.06 1921.68"/><polygon class="cls-5" points="1513.29 844.97 1576.01 846.93 1551.18 892.66 1513.29 844.97"/><polygon class="cls-5" points="1388.5 1336.93 1445.99 1345.43 1441.42 1298.39 1388.5 1336.93"/><polygon class="cls-5" points="1511.98 1681.25 1568.17 1690.39 1572.74 1653.15 1511.98 1681.25"/><path class="cls-6" d="M2831.76,1191.16l-80.47.14A573.37,573.37,0,0,0,2714,1039.21l68-39.45c18.6-10.78,25-35.1,14.24-54.37L2767.64,894c-10.79-19.39-34.73-26.51-53.52-15.84l-67.19,38.12A591.58,591.58,0,0,0,2536.06,799l38.65-66.38c11.09-19,4.51-44.11-14.73-56l-51.43-31.91c-19.45-12.06-44.4-6.36-55.69,12.8l-38.73,65.69a602.31,602.31,0,0,0-160.28-48.86V596.36c0-23-18.91-42.48-42.3-43.55L2148.92,550c-23.7-1.08-43,16.87-43,40.11v78.76a609.39,609.39,0,0,0-167.83,38.35l-41.8-71.2c-12.29-20.93-39.57-29-61-18.06l-57.27,29.36c-21.66,11.11-29.09,37.24-16.57,58.31l43.31,72.85a605,605,0,0,0-125.68,119.11l-78.34-44.32c-22.21-12.56-50.71-6.05-63.62,14.62L1502.73,923c-13,20.81-5.28,47.81,17.19,60.24L1601,1028.1a578.88,578.88,0,0,0-44.27,165.26l-97.24.16c-26.17,0-47.45,19.88-47.45,44.3v65c0,24.42,21.28,44,47.45,43.62l99.83-1.24A573,573,0,0,0,1608,1505.81l-88.1,50c-22.47,12.75-30.19,39.86-17.19,60.49l34.44,54.66c12.91,20.49,41.41,26.6,63.62,13.72l89.12-51.67a594.3,594.3,0,0,0,123,109.9l-51.38,87.14c-12.52,21.24-5.09,47.27,16.57,58.07l57.27,28.56c21.41,10.67,48.69,2.17,61-18.92l51-87.52A604.89,604.89,0,0,0,2106,1843.13v97.56c0,23.24,19.27,40.92,43,39.51l62.63-3.75c23.39-1.4,42.3-21.16,42.3-44.14v-96.5a609.1,609.1,0,0,0,151.73-46.91l47.28,79.51c11.29,19,36.24,24.35,55.69,12l51.43-32.64c19.24-12.2,25.82-37.36,14.73-56.25l-45.9-78.17a603.66,603.66,0,0,0,108.76-111.7l76.55,42.35c18.79,10.4,42.73,2.94,53.52-16.6l28.59-51.81c10.71-19.43,4.36-43.65-14.24-54.17l-74-41.87a578.68,578.68,0,0,0,41.16-149.21l82.63-1c21.3-.27,38.52-18.26,38.52-40.19v-58.32C2870.28,1208.88,2853.06,1191.13,2831.76,1191.16Zm-651.45,480.12c-238.11,8.83-437.37-175.93-437.37-413s199.26-424.36,437.37-418.57c230,5.6,410.81,190.49,410.81,413.15S2410.32,1662.74,2180.31,1671.28Z"/><path class="cls-5" d="M3029.14,2289.16l-42.94-8a311.1,311.1,0,0,0-4.68-84.87l40.24-14.23c11-3.89,16.82-16.22,13-27.58l-10.1-30.28c-3.81-11.43-15.87-17.62-27-13.82L2958.08,2124a321.14,321.14,0,0,0-47.38-73.67l27.26-31.54c7.82-9,6.82-23.08-2.25-31.37l-24.23-22.17c-9.17-8.38-23-7.84-31,1.25l-27.24,31.17a326.31,326.31,0,0,0-80.59-42.12l7.8-41.56c2.31-12.26-5.83-24.55-18.2-27.46l-33.12-7.8c-12.53-3-24.61,4.7-26.93,17.1l-7.89,42a330.53,330.53,0,0,0-93.36,3.65l-15.16-42.17c-4.46-12.39-18.2-19.45-30.72-15.74l-33.49,9.93a22.3,22.3,0,0,0-14.67,29.45l15.8,43.2a328.24,328.24,0,0,0-79,50.95l-37.35-31.48c-10.58-8.93-26.44-8.31-35.4,1.42l-23.89,26c-9,9.8-7.6,25,3.14,33.85l38.74,32a314.2,314.2,0,0,0-40.16,83.72L2297,2153c-14-2.59-27.3,5.86-29.75,18.88l-6.5,34.65c-2.45,13,6.95,25.57,20.94,28l53.37,9.33a310.81,310.81,0,0,0,9.9,90.59l-52,17.85c-13.26,4.55-20.09,18.24-15.22,30.54l12.89,32.61c4.84,12.22,19.43,18.34,32.57,13.69l52.7-18.64a322.6,322.6,0,0,0,54.59,70.94l-36.13,41.34c-8.81,10.08-7.45,24.71,3,32.64l27.68,21c10.35,7.83,25.76,6,34.42-4l35.94-41.59a327.79,327.79,0,0,0,81.35,33.44l-9.78,52c-2.32,12.4,6.19,23.76,19,25.38l33.77,4.27c12.63,1.6,24.69-7.05,27-19.31l9.67-51.48a330.16,330.16,0,0,0,85.62-9.83l17.26,47.15c4.12,11.27,16.89,16.62,28.49,12l30.71-12.26c11.48-4.59,17.51-17.35,13.49-28.54l-16.65-46.29a327.9,327.9,0,0,0,69.19-48.7L2921,2519c9,7.43,22.5,5.85,30.21-3.5l20.43-24.78c7.67-9.28,6.7-22.84-2.16-30.32l-35.29-29.75a313.83,313.83,0,0,0,36.89-75.47l44.18,7.73c11.39,2,22.37-5.89,24.57-17.59l5.84-31.11C3047.91,2302.46,3040.5,2291.27,3029.14,2289.16ZM2633.59,2480c-127.89-19.13-215.66-137.65-191.92-264.1s148.77-206.42,275.19-179.49c122.13,26,200,142.76,177.75,261.53S2757.12,2498.52,2633.59,2480Z"/><polygon class="cls-5" points="2597.28 1889.82 2566.91 1883.03 2551.22 1908.45 2597.28 1889.82"/><polygon class="cls-5" points="2898.02 1959.37 2933.2 1966.34 2928.32 1992.34 2898.02 1959.37"/><polygon class="cls-5" points="3008.8 2110.02 3043.67 2118.03 3031.2 2136.06 3008.8 2110.02"/><polygon class="cls-5" points="3032.11 2290.1 3067.07 2299.57 3052.24 2314.61 3032.11 2290.1"/><polygon class="cls-5" points="2927.36 2522.51 2960.87 2533.89 2970.37 2506.57 2927.36 2522.51"/><polygon class="cls-5" points="2771.79 2624.61 2801.65 2636.04 2808.4 2613.66 2771.79 2624.61"/><polygon class="cls-5" points="2606.9 2650.4 2580.06 2640.27 2610.62 2609.27 2606.9 2650.4"/><polygon class="cls-5" points="2462.12 2592.3 2431.05 2579.56 2461.67 2554.03 2462.12 2592.3"/><polygon class="cls-5" points="2389.17 1979.15 2422.71 1986.54 2404.74 2008.63 2389.17 1979.15"/><polygon class="cls-5" points="2272.39 2231.13 2302.45 2241.5 2304.74 2215.74 2272.39 2231.13"/><polygon class="cls-5" points="2304.04 2428.77 2333.33 2439.36 2339.55 2419.79 2304.04 2428.77"/><path class="cls-6" d="M3063.29,2298.45l-43.29-8a313.74,313.74,0,0,0-4.72-85.56l40.57-14.35c11.09-3.92,17-16.35,13.14-27.8l-10.18-30.53c-3.84-11.52-16-17.77-27.18-13.93l-40,13.72a323.2,323.2,0,0,0-47.78-74.27l27.49-31.8c7.88-9.12,6.88-23.26-2.26-31.62l-24.44-22.36c-9.24-8.45-23.24-7.9-31.24,1.26l-27.47,31.42a329.29,329.29,0,0,0-81.26-42.46l7.87-41.9c2.32-12.36-5.88-24.75-18.36-27.69l-33.39-7.86c-12.63-3-24.81,4.74-27.16,17.24l-7.95,42.36a333.36,333.36,0,0,0-94.13,3.67l-15.29-42.51c-4.5-12.49-18.35-19.61-31-15.87l-33.77,10a22.48,22.48,0,0,0-14.79,29.69l15.93,43.55a330.72,330.72,0,0,0-79.61,51.37l-37.66-31.75c-10.68-9-26.66-8.37-35.69,1.44l-24.09,26.19c-9.09,9.87-7.67,25.18,3.16,34.13l39.07,32.31a316.45,316.45,0,0,0-40.5,84.4l-52.31-9.73c-14.08-2.62-27.53,5.9-30,19l-6.56,34.93c-2.46,13.13,7,25.79,21.12,28.25l53.81,9.41a313.77,313.77,0,0,0,10,91.33l-52.43,18c-13.37,4.59-20.26,18.39-15.35,30.79l13,32.88c4.88,12.32,19.59,18.49,32.83,13.8l53.15-18.79a325.05,325.05,0,0,0,55,71.52L2423.21,2534c-8.89,10.16-7.51,24.9,3,32.9l27.92,21.14c10.43,7.9,26,6.09,34.7-4l36.24-41.92a331.16,331.16,0,0,0,82,33.71l-9.85,52.47c-2.35,12.49,6.23,23.95,19.12,25.58l34,4.31c12.73,1.61,24.89-7.11,27.21-19.47l9.75-51.9a332.44,332.44,0,0,0,86.33-9.91l17.4,47.54c4.16,11.36,17,16.75,28.74,12.08l30.95-12.36c11.58-4.62,17.66-17.49,13.6-28.76l-16.79-46.68a329.83,329.83,0,0,0,69.77-49.09l36.89,30.51c9.06,7.48,22.69,5.89,30.46-3.53l20.61-25c7.72-9.36,6.75-23-2.19-30.57l-35.58-30a316.4,316.4,0,0,0,37.2-76.09l44.54,7.79c11.48,2,22.56-5.93,24.77-17.72l5.89-31.37C3082.22,2311.87,3074.75,2300.59,3063.29,2298.45Zm-398.82,192.43C2535.52,2471.59,2447,2352.11,2471,2224.63s150-208.1,277.47-181c123.14,26.24,201.71,143.93,179.23,263.67S2789,2509.52,2664.47,2490.88Z"/><path class="cls-1" d="M1193.28,2568.65c-23.25,38.54-63.76,90.86-107.62,151.54l732,106c-81.88-222.92-197.31-457-24.91-844.1,80.91-181.65,295.94-501,207.43-714-100.84-242.64-300.33-137.86-350.94-325.71-79.12-293.61-329-497.86-597.54-351.94-265,144-256.09,670.2,93.07,1245.84C1348.51,2277.63,1314.68,2367.41,1193.28,2568.65Z"/><g class="cls-7"><g class="cls-8"><path class="cls-9" d="M1470.25,2732.57c5.29-96.14,5.4-187.08,5.52-283.36l0-32.11c-2.8-46.36-4.3-92.16-5.75-136.44-3.28-100-6.38-194.45-23.31-294.73-.32-5.86-.35-11.54-.38-17.57-.11-21.51-.23-43.76-12.72-65l-.29-.88c-50.31-530.36-210.86-1059.22-477.2-1571.88l3.81-2c266.51,513,427.21,1042.24,477.62,1573,12.84,22.15,13,45.84,13.07,66.77,0,6,.06,11.61.35,17.12,17,100.32,20,194.91,23.34,295.06,1.45,44.25,3,90,5.75,136.46l0,32.23c-.12,96.34-.23,187.34-5.53,283.6Z"/><path class="cls-9" d="M1465.32,2262.28c-4.7-250.82,127.59-548.75,239.39-754.52,121.08-222.85,244.88-388.6,246.12-390.25l3.43,2.57c-1.23,1.65-124.87,167.2-245.81,389.78-111.54,205.3-243.52,502.48-238.84,752.34Z"/><path class="cls-9" d="M1296.86,1172.23c-19.82-265.87,21-549.49,34.35-642.69,2.56-17.83,4.25-29.61,4.18-31.89l4.29-.15c.08,2.56-1.24,11.86-4.23,32.65-13.38,93.09-54.1,376.35-34.31,641.76Z"/><path class="cls-9" d="M1392.5,1597.38C1302.78,1368.32,833.72,1165.23,829,1163.2l1.69-3.94c4.74,2,475.44,205.84,565.81,436.55Z"/></g></g><path class="cls-2" d="M1198.12,1759.55c4,339.82,167.88,227.85,319,261.39,174.42,252.37,190.86,486.51-69.57,688.72l-290.19-43.42c-107.66-5-234-37.91-226.87-181.27,8.06-162.15,46.4-265.14-136.61-344.77S532.26,1915.27,606.37,1750c78-173.93-104.94-408.37,28.75-524.9C868.07,1022.05,1194,1405.7,1198.12,1759.55Z"/><g class="cls-10"><g class="cls-8"><path class="cls-9" d="M1270.16,2367.68a2224,2224,0,0,1-312-437.77c-86.6-159.3-152.62-327.33-196.2-499.41a2031.79,2031.79,0,0,1-52.44-298.81l4.37-.43a2027.14,2027.14,0,0,0,52.32,298.16c43.5,171.73,109.37,339.41,195.81,498.39a2219.63,2219.63,0,0,0,311.37,436.91Z"/><path class="cls-9" d="M957.83,2554.32l-2-3.91c53.89-27.46,117.47-48.87,189-63.64A735.78,735.78,0,0,1,1245.38,2473l.29,4.38a729.93,729.93,0,0,0-100,13.73C1074.58,2505.76,1011.38,2527,957.83,2554.32Z"/><path class="cls-9" d="M1014.66,2026.87c-149.84-144.95-468.81-131.71-472-131.53l-.21-4.39c3.24-.14,324.06-13.51,475.28,132.76Z"/><path class="cls-9" d="M829.89,1648.57C785,1417.33,958.35,1150.1,960.11,1147.43l3.66,2.41c-1.74,2.66-174.08,268.42-129.57,497.9Z"/></g></g><path class="cls-11" d="M3215.86,2772.76,622.05,2750v67.46c0,18.31,11.31,33.87,26.63,36.65l733.46,132.83a99.64,99.64,0,0,0,26.31,1.25L3187.67,2836.7c15.88-1.35,28.19-17,28.19-35.78Z"/><path class="cls-12" d="M2274.57,2663.41l-1625.7,123.4c-29.09,2.21-52.74-21.25-52.74-52.41V1486.08c0-31.16,23.65-56.42,52.74-56.42h1625.7c24,0,43.35,22.83,43.35,51V2609.12C2317.92,2637.29,2298.54,2661.59,2274.57,2663.41Z"/><path class="cls-13" d="M2300.5,2663.41,674.79,2786.81c-29.09,2.21-52.74-21.25-52.74-52.41V1486.08c0-31.16,23.65-56.42,52.74-56.42H2300.5c24,0,43.34,22.83,43.34,51V2609.12C2343.84,2637.29,2324.46,2661.59,2300.5,2663.41Z"/><path class="cls-14" d="M2249.85,2583.85,735.68,2691c-23.67,1.68-42.91-17.58-42.91-43V1555.12c0-25.44,19.24-46.15,42.91-46.25l1514.17-6.73c19.77-.09,35.76,18.62,35.76,41.79v995.44C2285.61,2562.54,2269.62,2582.45,2249.85,2583.85Z"/><path class="cls-15" d="M1545.06,1463.8c0,11.6-8.37,21-18.7,21.07s-18.74-9.37-18.74-21,8.39-21.06,18.74-21.06S1545.06,1452.2,1545.06,1463.8Z"/><path class="cls-16" d="M1908.81,2321c-125.33-72.43-223.87,19.35-319-71.21-57.66-54.89-29.35-95.83-100.3-177.87-78.58-90.87-129.74-60.32-208.71-142.1-99.85-103.41-49.91-183.86-135.92-258.1-104.34-90.07-216.87-6.71-316.19-93.08-42.84-37.26-66.35-91.42-78.62-149H652.91c-17,0-30.86,14.83-30.86,33.12v1294c0,18.29,13.83,32.06,30.86,30.76l1656.86-126.32c8.13-.62,15.34-5.72,20-13.11-121.28-4.75-195.79-48.43-243.42-93.57C1993.13,2466.21,2009.29,2379.11,1908.81,2321Z"/><path class="cls-17" d="M2365.29,2657.81,622.05,2787.71l760.09,137.65a99.64,99.64,0,0,0,26.31,1.25l1807.41-153.85L2393,2658.7A131.24,131.24,0,0,0,2365.29,2657.81Z"/><polygon class="cls-18" points="876.42 2790.97 2327.72 2681.22 2776.88 2742.99 1338.08 2860.3 876.42 2790.97"/><g class="cls-19"><polygon class="cls-15" points="1001.69 1594.69 834.96 1595.27 834.96 1541.31 1001.69 1541.31 1001.69 1594.69"/><polygon class="cls-15" points="1875.32 1591.64 1107.6 1594.32 1107.6 1541.31 1875.32 1541.31 1875.32 1591.64"/><polygon class="cls-15" points="1268.54 1683.34 1107.6 1684.86 1107.6 1631.85 1268.54 1630.89 1268.54 1683.34"/><polygon class="cls-15" points="2112.77 1675.36 1370.8 1682.37 1370.8 1630.29 2112.77 1625.86 2112.77 1675.36"/><polygon class="cls-15" points="1268.54 1772.92 1107.6 1775.4 1107.6 1722.4 1268.54 1720.48 1268.54 1772.92"/><polygon class="cls-15" points="2112.77 1759.91 1370.8 1771.35 1370.8 1719.26 2112.77 1710.41 2112.77 1759.91"/><polygon class="cls-15" points="1001.69 1868.21 834.96 1871.78 834.96 1817.82 1001.69 1814.84 1001.69 1868.21"/><polygon class="cls-15" points="1875.32 1849.53 1107.6 1865.95 1107.6 1812.94 1875.32 1799.21 1875.32 1849.53"/><polygon class="cls-15" points="1268.54 1952.09 1107.6 1956.49 1107.6 1903.48 1268.54 1899.64 1268.54 1952.09"/><polygon class="cls-15" points="2112.77 1929 1370.8 1949.29 1370.8 1897.21 2112.77 1879.51 2112.77 1929"/><polygon class="cls-15" points="1268.54 2041.67 1107.6 2047.03 1107.6 1994.03 1268.54 1989.23 1268.54 2041.67"/><polygon class="cls-15" points="2112.77 2013.55 1370.8 2038.27 1370.8 1986.18 2112.77 1964.06 2112.77 2013.55"/><polygon class="cls-15" points="1268.54 2131.26 1107.6 2137.58 1107.6 2084.57 1268.54 2078.81 1268.54 2131.26"/><polygon class="cls-15" points="2112.77 2098.1 1370.8 2127.24 1370.8 2075.15 2112.77 2048.6 2112.77 2098.1"/><polygon class="cls-15" points="1528.64 2209.07 1373.26 2216.1 1373.26 2164.02 1528.64 2157.54 1528.64 2209.07"/><polygon class="cls-15" points="2226.07 2177.52 1627.39 2204.61 1627.39 2153.41 2226.07 2128.42 2226.07 2177.52"/><polygon class="cls-15" points="1001.69 2324.09 834.96 2332.62 834.96 2278.67 1001.69 2270.71 1001.69 2324.09"/><polygon class="cls-15" points="1875.32 2279.36 1107.6 2318.66 1107.6 2265.66 1875.32 2229.03 1875.32 2279.36"/><polygon class="cls-15" points="1268.54 2400.01 1107.6 2409.21 1107.6 2356.2 1268.54 2347.56 1268.54 2400.01"/><polygon class="cls-15" points="2112.77 2351.75 1370.8 2394.16 1370.8 2342.07 2112.77 2302.25 2112.77 2351.75"/><polygon class="cls-15" points="1268.54 2489.59 1107.6 2499.75 1107.6 2446.74 1268.54 2437.15 1268.54 2489.59"/><polygon class="cls-15" points="2112.77 2436.3 1370.8 2483.14 1370.8 2431.05 2112.77 2386.8 2112.77 2436.3"/><polygon class="cls-15" points="1001.69 2597.61 834.96 2609.13 834.96 2555.17 1001.69 2544.24 1001.69 2597.61"/><polygon class="cls-15" points="1875.32 2537.25 1107.6 2590.29 1107.6 2537.29 1875.32 2486.93 1875.32 2537.25"/></g><path class="cls-20" d="M2915.91,2023.24c-94.69,186.89-223.46,206.74-261.43,208.63v.15s1.11.09-1.72,0-1.73,0-1.73,0v-.15c-34.52-1.56-124.14-15.38-209.12-125.36a519.43,519.43,0,0,1-52.22-83.27c-110-217.09-30-328.9-30-328.9l291.36-.7v0l1.73,0,1.72,0v0l124.14.31,167.71.39S3025.92,1806.15,2915.91,2023.24Z"/><ellipse class="cls-21" cx="2653.21" cy="1698.87" rx="295.82" ry="37.47"/><path class="cls-22" d="M2915.91,2023.24c-94.69,186.89-223.46,206.74-261.43,208.63v.15s1.11.09-1.72,0-1.73,0-1.73,0v-.15c-34.52-1.56-124.14-15.38-209.12-125.36.49-101.27,235.45-170.08,308.86-217,92.87-59.37,18.15-190.6,18.15-190.6,3.59-1.71,7.09-3.35,10.59-4.93l167.26.39S3025.92,1806.15,2915.91,2023.24Z"/><ellipse class="cls-23" cx="2203.13" cy="1172.33" rx="154.26" ry="197.38"/><path class="cls-24" d="M3177.34,1216.8c0,245.56-242.94,444.6-542.61,444.6a656.25,656.25,0,0,1-133.39-13.55c-235.18-48.69-409.22-223.21-409.22-431,0-245.53,242.94-444.6,542.61-444.6,84.19,0,163.9,15.72,235,43.76C3051.74,887.72,3177.34,1040.27,3177.34,1216.8Z"/><path class="cls-4" d="M2272.38,1419.75l418.38,36.51c92.48,8.07,172.26-64.27,175.5-162.61l3.45-104.94c1.49-45.13-33.07-82.78-76.61-83.9l-596.41-15.39c-34.63-.89-62.38,30.59-62.38,70.18v92.11C2134.31,1338.13,2195.24,1413,2272.38,1419.75Z"/><path class="cls-25" d="M2262.34,1359.74l447.66,33c66.12,4.87,122.6-47.39,124.8-117.22l1.46-46.34c1.4-44.78-32.78-82.3-75.78-83.61l-533.68-16.32c-35-1.07-63.06,30.38-63.11,70.1l-.06,41.13C2163.55,1302.45,2207.29,1355.69,2262.34,1359.74Z"/><path class="cls-6" d="M2524.79,1319.64c-4.21-6.92-6.76-14.57-6.62-22.65.45-26.21,26.72-46.19,59-44.56,32.65,1.64,58.91,24.73,58.31,51.48a39.47,39.47,0,0,1-7.8,22.21Z"/><path class="cls-6" d="M2249.33,1302.29a42,42,0,0,1-6.24-21.54c.13-24.93,23.62-44,52.78-42.53,29.47,1.49,53.39,23.36,53.15,48.78a38.54,38.54,0,0,1-6.78,21.14Z"/><path class="cls-26" d="M3177.34,1216.8c0,245.56-242.94,444.6-542.61,444.6a656.25,656.25,0,0,1-133.39-13.55c-42.2-133.21,196.3-279.3,333.46-372.38,168-114,35-459.51,35-459.51C3051.74,887.72,3177.34,1040.27,3177.34,1216.8Z"/><ellipse class="cls-27" cx="3103.29" cy="1249.74" rx="154.26" ry="197.38"/><path class="cls-28" d="M1606.39,2393.23c36.57-20.27,25.87-135.31-23.75-216.14-70.45-114.77-224.86-169.56-256.52-135.38-32.39,35,60.86,166.3,76,187.63C1457.08,2306.73,1563.13,2417.2,1606.39,2393.23Z"/><path class="cls-29" d="M1937.18,3126.4c-6.83,7.55-8.39,21.43-2.45,28.27s14.61,1.69,39.51,2.43c26.66.8,33.63,7.09,51.75,2.09,7.32-2,20.25-6.93,20-12.16-.17-3.67-6.75-5.57-28.74-12.94-31.21-10.45-31.07-11-37.7-12.12C1962.91,3119.21,1946.2,3116.45,1937.18,3126.4Z"/><path class="cls-30" d="M1954.26,3082.91l13.38,44.49c-1,2.39-14.61,10.35-26.28,5.3l-19.86-43.18Z"/><path class="cls-31" d="M1768.06,3165.5c-6.84,7.54-8.39,21.43-2.45,28.27s14.61,1.68,39.51,2.43c26.66.79,33.63,7.09,51.75,2.09,7.32-2,20.25-6.93,20-12.16-.17-3.67-6.75-5.57-28.74-12.94-31.21-10.45-31.07-11-37.7-12.12C1793.79,3158.31,1777.08,3155.54,1768.06,3165.5Z"/><path class="cls-32" d="M1785.14,3122l13.37,44.49c-1,2.38-14.6,10.34-26.27,5.3l-19.86-43.18Z"/><path class="cls-33" d="M1032.79,2049.15a580.14,580.14,0,0,1,187.15-31.26c89.93,0,162.15,0,212,42.52,121,103.15-14.43,350.22,55,533.19,7.6,20,29.71,83.57,10.48,152.09-3.55,12.63-10.85,23.58-23.33,42.11-73.31,108.75-279.22,117.67-373.55,23.37-49.85-49.83-94.67-40.71-95.87-97.57C999.91,2489.14,1034.74,2265.25,1032.79,2049.15Z"/><path class="cls-34" d="M1085,2319.31c-17.14-46.93.62-100.66-37.6-124.11-14-8.59-31.41-12.24-50.37-11.82,2.27,165,5.51,329.79,9.53,502,1.32,56.87,8.43,59.68,63.55,109.52,63.87,57.74,173.94,76.59,268.34,57.7-123.64-76-211.85-154.8-199.22-222.31,14.72-78.62,158.7-101.84,152.91-157.74C1286,2413.27,1122.47,2421.92,1085,2319.31Z"/><path class="cls-35" d="M1072.11,2054.22c-41.56-28.06-141.71,42.71-197.22,105-25.8,29-115.64,129.75-93.32,265.16,3.64,22.06,20.38,125.23,108.7,175.76,79.07,45.25,185.84,33.61,271.39-30.47l35.08-31.12,34.5-37.3a276.94,276.94,0,0,0-91.94-50.65c-65.74-21.22-109,10.25-124.69-10.46-19.36-25.51,39.58-73,55-181.16C1073.82,2229.8,1118.54,2085.57,1072.11,2054.22Z"/><path class="cls-36" d="M1140.3,2760.25c-27.47,89.39,23.39,53.05,127,2,109.09-53.74,347.54-130.92,450.29-29.83,76.52,75.29,22.39,194.34,140.78,325.37a383.14,383.14,0,0,0,53,48.56l64-26.48c8.37-48.89,34.74-237.34-83.87-406.13-28.68-40.8-83.23-119.15-176.58-152.29C1462.49,2431.86,1165.63,2677.81,1140.3,2760.25Z"/><path class="cls-37" d="M1039.59,2676.85c-17.78,51.34-1.78,110.35,27.28,147,64.5,81.38,209.3,72.82,299.74,42.76,110.05-36.56,134.63-103.15,177.91-86.79,67.24,25.44,19.4,191,140.78,325.38a384.45,384.45,0,0,0,53,48.56l64-26.49c16.12-113.84,4.34-205.05-7.93-263.31-14.07-66.8-26.68-126.66-73.75-184.38-58.49-71.71-134.92-96.9-178.77-110.73C1356.31,2510.36,1085.79,2543.45,1039.59,2676.85Z"/><polygon class="cls-38" points="1641.14 2538.04 1140.3 2530.56 1273.48 2594.84 1642.42 2570.69 1641.14 2538.04"/><path class="cls-39" d="M1122.62,2543.87h0a22.28,22.28,0,0,0,14.68,20.94l160,62.74.73-43.49-157.76-53.51A13.85,13.85,0,0,0,1122.62,2543.87Z"/><path class="cls-40" d="M1194.13,2523.77c-3.08-.69,15-36.65,29.14-32.5s83.47,44.31,89.76,60.85l6.3,16.54s-30.22,2.36-49-3.94S1219.12,2529.34,1194.13,2523.77Z"/><path class="cls-41" d="M1311.35,2278.88l-35.3,321.44c-1.22,11.09,14.3,27.62,25.45,27.09l517.9-31.79a18.17,18.17,0,0,0,17-15.07l65-310.45c1.94-11.3-18.37-23-29.83-22.65l-542.72,15.26A18.16,18.16,0,0,0,1311.35,2278.88Z"/><path class="cls-42" d="M1323.18,2288.25l-35.3,321.45a18.16,18.16,0,0,0,18.91,20.12L1831.24,2605a18.15,18.15,0,0,0,17-15.06l53.58-311.88a18.14,18.14,0,0,0-18.4-21.22l-542.73,15.26A18.15,18.15,0,0,0,1323.18,2288.25Z"/><path class="cls-43" d="M1631.14,2529.67c-45.79-19.41-29.63-56.42-83.7-102.54-71.34-60.85-144.06-34.46-169.51-81.62-7.93-14.69-11.72-37.54,2.09-74.53l-39.3,1.11a18.15,18.15,0,0,0-17.54,16.16l-35.3,321.45a18.16,18.16,0,0,0,18.91,20.12L1831.24,2605a18.15,18.15,0,0,0,17-15.06l7.4-43a198,198,0,0,0-57.12-21.41C1721.61,2509.88,1683.86,2552,1631.14,2529.67Z"/><path class="cls-44" d="M1228.34,1895a389.53,389.53,0,0,1-7,77.89c-4,20.74-6.94,26.1-10.64,30.45-5.58,6.55-14,12-61.81,23.89-26,6.44-29.34,6.26-29.91,8.84-2.8,12.59,68.08,55.48,141.32,45.14,44.82-6.32,85.6-31.89,83.1-45.32s-47.29-6.26-60.64-30.71c-9.28-17,1.13-41.16,13.42-61.15C1284.31,1921.73,1240.25,1917.36,1228.34,1895Z"/><path class="cls-45" d="M1322.39,1937.43c13.78-10.94,20.6-34.51,12.71-52.59-6.79-15.55-22.28-21.55-31.56-25.15-26.87-10.42-64.85-8-83.65,14.38-11.14,13.24-3.74,48.7-2.76,55,1.1,7.11,5.54,10.6,8.92,16.63,4.68,8.37,12,21.64,23.75,43.71a117.56,117.56,0,0,1,11.19-17.16c1.89-2.4,9.42-11.76,18.92-18.67C1298.93,1939.71,1309.33,1947.79,1322.39,1937.43Z"/><path class="cls-46" d="M1230.28,1968.32s10.43,34.63,47.31,41.72c33,6.34,56.75-65.24,40-86.1-5.58-7-18.88-12.7-31-12.48-7.14.13-10.11,2.31-21.78,2.3-10.77,0-13.33-1.87-17-.1-4.64,2.21-9.48,9.34-8.67,32.28-4.56-7.88-11.37-12.23-17.28-11.11a11.43,11.43,0,0,0-5.43,3.09C1209.75,1945.05,1214.58,1957.65,1230.28,1968.32Z"/><path class="cls-47" d="M1247.49,1908.92c1.27,1.57-5,6.17-7.55,14.35-4.88,15.87,6.35,39.37,22.5,45.32,9.55,3.52,13.78-1.69,30.43.82a76.45,76.45,0,0,1,23.27,7.52c.51,18.93-8.85,35.23-22.74,40.31-15,5.47-29.75-4.06-35.94-8-4.14-2.67-17.41-11.18-21.52-26.46-4.29-15.91,5.63-22.25-1-34-3.33-5.91-8.8-9.53-12.26-20.2a46.34,46.34,0,0,1-1.69-7C1231.69,1914.82,1245.67,1906.64,1247.49,1908.92Z"/><path class="cls-48" d="M1302.66,1980.38s-8,1.84-19.91-2c-.58-.19-1.28-.18-1.43.11-.58,1.07,5.85,8.25,13.54,8.1,5.46-.1,10.67-3.89,10.3-5.29C1305,1980.71,1303.84,1980.48,1302.66,1980.38Z"/></g></g></svg>