<svg xmlns="http://www.w3.org/2000/svg" xmlns:xlink="http://www.w3.org/1999/xlink" viewBox="0 0 3710 3710"><defs><style>.cls-1{fill:url(#linear-gradient);}.cls-2{fill:url(#linear-gradient-2);}.cls-3{fill:url(#linear-gradient-3);}.cls-4{isolation:isolate;}.cls-5{fill:#f4f7fa;}.cls-6{clip-path:url(#clip-path);}.cls-17,.cls-24,.cls-7{mix-blend-mode:soft-light;}.cls-8{fill:#fcfdfe;}.cls-9{clip-path:url(#clip-path-2);}.cls-10{fill:url(#linear-gradient-6);}.cls-11{fill:url(#linear-gradient-7);}.cls-12{fill:url(#linear-gradient-8);}.cls-13{fill:url(#linear-gradient-9);}.cls-14{fill:url(#linear-gradient-10);}.cls-15{fill:url(#linear-gradient-11);}.cls-16{fill:url(#linear-gradient-12);}.cls-17,.cls-18,.cls-20,.cls-24{fill:#fff;}.cls-17{opacity:0.6;}.cls-19{mask:url(#mask);}.cls-20{opacity:0.56;}.cls-21{fill:#97a6b7;}.cls-22,.cls-26{fill:#d8dee8;}.cls-23{fill:url(#linear-gradient-13);}.cls-24{opacity:0.3;}.cls-25{fill:#bfc8d6;}.cls-26{opacity:0.4;mix-blend-mode:multiply;}.cls-27{fill:url(#linear-gradient-14);}.cls-28{fill:url(#linear-gradient-15);}.cls-29{fill:url(#linear-gradient-16);}.cls-30{fill:url(#linear-gradient-17);}</style><linearGradient id="linear-gradient" x1="1873.09" y1="2934.77" x2="1822.14" y2="1728.92" gradientUnits="userSpaceOnUse"><stop offset="0" stop-color="#fff"/><stop offset="1"/></linearGradient><linearGradient id="linear-gradient-2" x1="1588.53" y1="587.41" x2="1238.91" y2="3051.06" gradientUnits="userSpaceOnUse"><stop offset="0" stop-color="#ffc444"/><stop offset="1" stop-color="#f36f56"/></linearGradient><linearGradient id="linear-gradient-3" x1="612.34" y1="1498.62" x2="1922.36" y2="3655.25" gradientUnits="userSpaceOnUse"><stop offset="0" stop-color="#e38ddd"/><stop offset="1" stop-color="#9571f6"/></linearGradient><clipPath id="clip-path"><path class="cls-2" d="M1335.29,2852c-20.8,49.35-59.59,117.88-100.9,196.82h880.19c-134.45-248.57-310.32-504.6-173.28-989.86,64.3-227.72,263.09-640.5,122.54-876.23C1903.71,914.14,1686.63,1071.55,1595,858.94c-143.24-332.29-472.41-530.22-763.74-312.59-287.53,214.8-187.32,833,322,1451.37C1468.48,2482.76,1444,2594.27,1335.29,2852Z"/></clipPath><clipPath id="clip-path-2"><path class="cls-3" d="M1184,1869.46c4.74,404.38,199.78,271.13,379.63,311,207.57,300.32,227.12,578.95-82.79,819.58l-345.31-51.67c-128.13-5.95-278.47-45.11-270-215.72,9.59-193,55.22-315.5-162.57-410.26s-311.35-267.67-223.15-464.34c92.81-207-124.88-486,34.21-624.63C791.26,991.83,1179.07,1448.38,1184,1869.46Z"/></clipPath><linearGradient id="linear-gradient-6" x1="2347.26" y1="2844.48" x2="2349.1" y2="2964.01" gradientTransform="matrix(-1, 0, 0, 1, 4283.5, 0)" gradientUnits="userSpaceOnUse"><stop offset="0" stop-color="#444b8c"/><stop offset="1" stop-color="#26264f"/></linearGradient><linearGradient id="linear-gradient-7" x1="2326.51" y1="3081.68" x2="2517.4" y2="2503.7" xlink:href="#linear-gradient-6"/><linearGradient id="linear-gradient-8" x1="1480.28" y1="3026.38" x2="3254.54" y2="3026.38" gradientTransform="matrix(-1, 0, 0, 1, 4283.5, 0)" gradientUnits="userSpaceOnUse"><stop offset="0" stop-color="#ff9085"/><stop offset="1" stop-color="#fb6fbb"/></linearGradient><linearGradient id="linear-gradient-9" x1="2208.06" y1="2796.84" x2="2236.93" y2="2796.84" gradientTransform="matrix(-0.99, 0.12, 0.12, 0.99, 4375.79, 34.93)" xlink:href="#linear-gradient-8"/><linearGradient id="linear-gradient-10" x1="2307.41" y1="3138.09" x2="2309.38" y2="3188.76" xlink:href="#linear-gradient-6"/><linearGradient id="linear-gradient-11" x1="2436.79" y1="3133.07" x2="2438.76" y2="3183.74" xlink:href="#linear-gradient-6"/><linearGradient id="linear-gradient-12" x1="2598.77" y1="3126.79" x2="2600.73" y2="3177.47" xlink:href="#linear-gradient-6"/><mask id="mask" x="1010.15" y="1507.92" width="1627.7" height="1517.88" maskUnits="userSpaceOnUse"><path class="cls-1" d="M2637.84,1751.5l-723.55,1183-6.61,10.79-8.78,14.37-15.38,25.15-11.18,18.25c0,12.17-41.12,22.06-92.8,22.67-1.67,0-3.34,0-5,0-54,0-97.84-10.15-97.84-22.7l-10.23-18.57-20.51-37.18-7-12.69-8.77-15.91-43.06-78.13-74.18-134.52-83.57-151.6-8.33-15.15-92.34-167.55L1270,2265.33,1010.15,1794c60.13-46.07,200.47-145.81,405.05-214.43,30.39-10.21,62.18-19.72,95.38-28.26q11.51-3,23.26-5.79c5.87-1.4,11.78-2.78,17.72-4.09,4.68-1.09,9.42-2.11,14.16-3.13h.06a1366.56,1366.56,0,0,1,228.56-29.11q14.69-.64,29.65-1a1373.24,1373.24,0,0,1,411.9,54.11c4,1.11,7.93,2.28,11.82,3.45,1.14.35,2.28.68,3.39,1q18.83,5.65,36.91,11.7c33,10.94,64.06,22.61,93.19,34.6C2504.11,1663.69,2592.13,1720.09,2637.84,1751.5Z"/></mask><linearGradient id="linear-gradient-13" x1="1474.63" y1="1546.41" x2="2393.49" y2="1546.41" gradientTransform="matrix(1, 0, 0, 1, 0, 0)" xlink:href="#linear-gradient-6"/><linearGradient id="linear-gradient-14" x1="1951.61" y1="2052.69" x2="3043.07" y2="2052.69" gradientUnits="userSpaceOnUse"><stop offset="0" stop-color="#40447e"/><stop offset="1" stop-color="#3c3b6b"/></linearGradient><linearGradient id="linear-gradient-15" x1="2745.99" y1="1912.96" x2="2273.02" y2="2446.96" gradientUnits="userSpaceOnUse"><stop offset="0" stop-color="#aa80f9"/><stop offset="1" stop-color="#6165d7"/></linearGradient><linearGradient id="linear-gradient-16" x1="1661.2" y1="2221.4" x2="1470.52" y2="2462.26" gradientTransform="translate(2099.25 -448.79) rotate(45)" xlink:href="#linear-gradient-6"/><linearGradient id="linear-gradient-17" x1="6817.72" y1="-599.13" x2="6614.96" y2="-343.02" gradientTransform="matrix(0.22, 0.75, -0.98, 0.29, -65.47, -2642.41)" xlink:href="#linear-gradient-6"/></defs><g class="cls-4"><g id="Illustration"><path class="cls-5" d="M1899.77,497.09c-736.55-21.45-1374.55,505.6-1470.95,1197.16-105.39,756.12,474.67,1436.44,1188.4,1545.41C2505,3375.19,3366.06,2591.11,3288.75,1740.51,3230.5,1099.65,2648.48,518.9,1899.77,497.09Z"/><path class="cls-2" d="M1335.29,2852c-20.8,49.35-59.59,117.88-100.9,196.82h880.19c-134.45-248.57-310.32-504.6-173.28-989.86,64.3-227.72,263.09-640.5,122.54-876.23C1903.71,914.14,1686.63,1071.55,1595,858.94c-143.24-332.29-472.41-530.22-763.74-312.59-287.53,214.8-187.32,833,322,1451.37C1468.48,2482.76,1444,2594.27,1335.29,2852Z"/><g class="cls-6"><g class="cls-7"><path class="cls-8" d="M1689.44,2997.79c-10.17-114.12-25.55-221.25-41.83-334.66l-5.42-37.82c-11.2-54.13-20.78-107.8-30-159.71-20.92-117.21-40.67-227.92-77.7-343.13-1.39-6.84-2.39-13.54-3.46-20.63-3.8-25.32-7.73-51.5-26.06-74.42l-.49-1c-149.69-616-429-1211.49-830-1769.84l4.15-3c401.35,558.72,680.85,1154.6,830.73,1771.07,18.89,23.89,23.07,51.78,26.77,76.41,1.06,7,2,13.66,3.34,20.1,37.06,115.25,56.85,226.13,77.79,343.52,9.26,51.87,18.83,105.51,30,159.73l5.44,38c16.3,113.49,31.68,220.68,41.86,334.94Z"/><path class="cls-8" d="M1603.43,2444.76c-48.3-294.58,56.69-668,153.28-929.43,104.59-283.09,222.13-499.41,223.3-501.56l4.49,2.44c-1.18,2.15-118.56,218.2-223,501-96.36,260.81-201.12,633.3-153,926.77Z"/><path class="cls-8" d="M1219.16,1189.73C1150.48,880,1150.13,539,1150,427c0-21.43,0-35.59-.52-38.27l5-.9c.54,3,.58,14.17.6,39.17.12,111.91.46,452.46,69,761.66Z"/><path class="cls-8" d="M1404.29,1674.12c-144.73-254.47-731.77-413.66-737.69-415.24l1.32-4.94c5.93,1.59,595,161.36,740.81,417.66Z"/></g></g><path class="cls-3" d="M1184,1869.46c4.74,404.38,199.78,271.13,379.63,311,207.57,300.32,227.12,578.95-82.79,819.58l-345.31-51.67c-128.13-5.95-278.47-45.11-270-215.72,9.59-193,55.22-315.5-162.57-410.26s-311.35-267.67-223.15-464.34c92.81-207-124.88-486,34.21-624.63C791.26,991.83,1179.07,1448.38,1184,1869.46Z"/><g class="cls-9"><g class="cls-7"><path class="cls-8" d="M1269.74,2593.12a2646.08,2646.08,0,0,1-371.26-520.94C795.42,1882.61,716.86,1682.66,665,1477.88a2415.82,2415.82,0,0,1-62.4-355.58l5.19-.51a2413.76,2413.76,0,0,0,62.27,354.81c51.76,204.35,130.15,403.9,233,593.08A2641.11,2641.11,0,0,0,1273.6,2589.6Z"/><path class="cls-8" d="M898.07,2815.22l-2.37-4.65c64.14-32.67,139.79-58.15,224.86-75.73a872.71,872.71,0,0,1,119.7-16.43l.34,5.21a868.45,868.45,0,0,0-119,16.34C1037,2757.44,961.79,2782.76,898.07,2815.22Z"/><path class="cls-8" d="M965.7,2187.56C787.39,2015.07,407.81,2030.83,404,2031l-.25-5.22c3.85-.17,385.63-16.08,565.57,158Z"/><path class="cls-8" d="M745.82,1737.39c-53.37-275.18,152.87-593.18,155-596.36l4.36,2.87C903.07,1147.06,698,1463.32,751,1736.39Z"/></g></g><path class="cls-10" d="M2906,3029.23l-1213.25-83.79a24.76,24.76,0,0,0-4.39,0l-722.54,32.73c-17.28,1.57-16.49,46.83,3.12,49.3l1135.29,152a56,56,0,0,0,14,0l785.54-110.38C2914.24,3067.23,2918.07,3030.11,2906,3029.23Z"/><path class="cls-11" d="M2903.6,3027.89,1692.75,2913.63a24.76,24.76,0,0,0-4.39,0l-719,63.13c-13.2,1.16-13.54,20.34-.39,22l1135.29,140.1a55.51,55.51,0,0,0,14,0l785.54-101.52C2909.33,3036.52,2909.19,3028.42,2903.6,3027.89Z"/><path class="cls-12" d="M2092.23,3125.12a40.48,40.48,0,0,0,5-.32l704.06-91a2.17,2.17,0,0,0-.07-4.32L1720.09,2927.68c-.25,0-.49,0-.73,0l-.67,0L1031.39,2988a2.67,2.67,0,0,0-.09,5.31l1056.11,131.5A38.74,38.74,0,0,0,2092.23,3125.12Z"/><path class="cls-13" d="M2492.77,3081.35c.26,2.1,6.88,3,14.79,2.06s14.13-3.45,13.87-5.55-6.88-3-14.79-2.06S2492.51,3079.25,2492.77,3081.35Z"/><path class="cls-14" d="M1920.22,3146.17l109,14.32c8,1,14.49-2.85,14.49-8.71h0c0-5.85-6.52-11.36-14.49-12.29l-109-12.73c-6.73-.79-12.14,2.88-12.14,8.2h0C1908.08,3140.27,1913.49,3145.29,1920.22,3146.17Z"/><path class="cls-15" d="M1801.18,3130.53l89.75,11.79c6.51.86,11.83-2.73,11.83-8h0c0-5.3-5.32-10.21-11.83-11l-89.75-10.48c-5.58-.65-10.08,2.75-10.08,7.59h0C1791.1,3125.28,1795.6,3129.8,1801.18,3130.53Z"/><path class="cls-16" d="M1650.77,3110.77l68.28,9c4.9.65,8.9-2.55,8.9-7.14h0c0-4.59-4-8.77-8.9-9.35l-68.28-8a6.73,6.73,0,0,0-7.75,6.78h0A9.07,9.07,0,0,0,1650.77,3110.77Z"/><path class="cls-17" d="M1524.41,2984.12c105.51,18.79,175.58,57,327,60.1,131.16,2.65,132.13-27.57,284.58-37.12,199.71-12.51,251.76,36,456,31.82a1279.07,1279.07,0,0,0,205.47-21l106.13,10c5.59.53,5.73,8.63.16,9.35l-785.54,101.52a55.51,55.51,0,0,1-14,0L1143.3,3020.22C1308.19,2965.24,1434.44,2968.11,1524.41,2984.12Z"/><path class="cls-18" d="M1774.49,3039.65c-56.22,0-139.87-9.73-139.87-36.54s83.65-36.53,139.87-36.53,139.87,9.73,139.87,36.53S1830.72,3039.65,1774.49,3039.65Zm0-62.4c-84.82,0-129.2,16.84-129.2,25.86s44.38,25.87,129.2,25.87,129.2-16.84,129.2-25.87S1859.32,2977.25,1774.49,2977.25Z"/><ellipse class="cls-17" cx="1774.49" cy="3003.11" rx="61.15" ry="14.18"/><g class="cls-19"><path class="cls-20" d="M2637.84,1751.5l-723.55,1183-6.61,10.79-8.78,14.37-15.38,25.15-11.18,18.25c0,12.17-41.12,22.06-92.8,22.67-1.67,0-3.34,0-5,0-54,0-97.84-10.15-97.84-22.7l-10.23-18.57-20.51-37.18-7-12.69-8.77-15.91-43.06-78.13-74.18-134.52-83.57-151.6-8.33-15.15-92.34-167.55L1270,2265.33,1010.15,1794c60.13-46.07,200.47-145.81,405.05-214.43,30.39-10.21,62.18-19.72,95.38-28.26q11.51-3,23.26-5.79c5.87-1.4,11.78-2.78,17.72-4.09,4.68-1.09,9.42-2.11,14.16-3.13h.06a1366.56,1366.56,0,0,1,228.56-29.11q14.69-.64,29.65-1a1373.24,1373.24,0,0,1,411.9,54.11c4,1.11,7.93,2.28,11.82,3.45,1.14.35,2.28.68,3.39,1q18.83,5.65,36.91,11.7c33,10.94,64.06,22.61,93.19,34.6C2504.11,1663.69,2592.13,1720.09,2637.84,1751.5Z"/></g><path class="cls-21" d="M3087.23,1327.31l-71.14-13.23a515.64,515.64,0,0,0-7.76-140.62l66.68-23.58c18.22-6.45,27.87-26.88,21.6-45.7L3079.87,1054c-6.31-18.92-26.29-29.19-44.67-22.88l-65.7,22.55A532.18,532.18,0,0,0,2891,931.6l45.17-52.25c13-15,11.31-38.24-3.71-52l-40.16-36.74c-15.19-13.89-38.18-13-51.34,2.07l-45.13,51.64a541.48,541.48,0,0,0-133.53-69.78l12.92-68.86c3.82-20.31-9.66-40.68-30.16-45.51l-54.87-12.91c-20.76-4.89-40.77,7.78-44.63,28.32l-13.07,69.62a547.27,547.27,0,0,0-154.68,6l-25.13-69.87c-7.38-20.54-30.15-32.23-50.9-26.08l-55.48,16.45c-21,6.23-31.89,28.09-24.31,48.79l26.19,71.57a544,544,0,0,0-130.84,84.43l-61.88-52.17c-17.54-14.79-43.82-13.76-58.65,2.37l-39.59,43c-14.94,16.24-12.6,41.39,5.19,56.1l64.2,53.1a520.3,520.3,0,0,0-66.54,138.71l-86-16c-23.13-4.3-45.23,9.69-49.29,31.28L1814,1190.4c-4,21.58,11.52,42.38,34.7,46.43l88.42,15.47a515.81,515.81,0,0,0,16.4,150.09L1867.38,1432c-22,7.54-33.28,30.23-25.22,50.61l21.36,54c8,20.25,32.19,30.38,54,22.68l87.33-30.88a534.75,534.75,0,0,0,90.44,117.54l-59.86,68.49c-14.6,16.7-12.34,40.94,5,54.08l45.87,34.74c17.16,13,42.68,10,57-6.6l59.56-68.9a543.61,543.61,0,0,0,134.77,55.39l-16.19,86.24c-3.85,20.53,10.24,39.36,31.42,42l56,7.08c20.91,2.65,40.9-11.68,44.71-32l16-85.3a547.45,547.45,0,0,0,141.88-16.29l28.59,78.13c6.82,18.66,28,27.53,47.22,19.85l50.87-20.31c19-7.6,29-28.75,22.34-47.28l-27.58-76.71a542.56,542.56,0,0,0,114.65-80.68l60.62,50.13c14.88,12.31,37.28,9.69,50.05-5.79L2992,1661.2c12.7-15.39,11.1-37.85-3.59-50.24L2930,1561.68a521,521,0,0,0,61.13-125.06l73.19,12.8c18.87,3.3,37.07-9.74,40.71-29.13l9.68-51.55C3118.33,1349.36,3106.06,1330.81,3087.23,1327.31Zm-655.39,316.28c-211.89-31.7-357.32-228.07-318-437.59s246.51-342,456-297.39c202.35,43.11,331.45,236.53,294.5,433.33S2636.53,1674.21,2431.84,1643.59Z"/><polygon class="cls-21" points="2371.68 665.65 2321.36 654.39 2295.37 696.52 2371.68 665.65"/><polygon class="cls-21" points="2869.97 780.89 2928.27 792.44 2920.18 835.52 2869.97 780.89"/><polygon class="cls-21" points="3053.54 1030.49 3111.31 1043.78 3090.64 1073.64 3053.54 1030.49"/><polygon class="cls-21" points="3092.14 1328.87 3150.07 1344.56 3125.5 1369.48 3092.14 1328.87"/><polygon class="cls-21" points="2918.6 1713.95 2974.12 1732.81 2989.85 1687.55 2918.6 1713.95"/><polygon class="cls-21" points="2660.83 1883.13 2710.31 1902.06 2721.49 1864.99 2660.83 1883.13"/><polygon class="cls-21" points="2387.62 1925.86 2343.16 1909.07 2393.78 1857.71 2387.62 1925.86"/><polygon class="cls-21" points="2147.74 1829.6 2096.26 1808.48 2146.99 1766.17 2147.74 1829.6"/><polygon class="cls-21" points="2026.88 813.67 2082.44 825.9 2052.66 862.5 2026.88 813.67"/><polygon class="cls-21" points="1833.38 1231.17 1883.19 1248.35 1886.98 1205.67 1833.38 1231.17"/><polygon class="cls-21" points="1885.81 1558.63 1934.35 1576.18 1944.65 1543.76 1885.81 1558.63"/><path class="cls-22" d="M3143.81,1342.72l-71.72-13.34a519.61,519.61,0,0,0-7.83-141.77l67.23-23.77c18.37-6.5,28.1-27.1,21.78-46.07l-16.88-50.59c-6.37-19.08-26.51-29.43-45-23.07l-66.25,22.73a536.21,536.21,0,0,0-79.16-123.07l45.53-52.68c13.07-15.11,11.4-38.55-3.74-52.4l-40.5-37c-15.3-14-38.49-13.1-51.76,2.08L2850,855.8a545.78,545.78,0,0,0-134.64-70.35l13-69.42c3.85-20.48-9.74-41-30.41-45.88l-55.33-13c-20.93-4.92-41.11,7.85-45,28.56l-13.17,70.18a552.26,552.26,0,0,0-156,6.1l-25.33-70.44c-7.45-20.7-30.4-32.5-51.32-26.3l-55.94,16.59c-21.16,6.27-32.16,28.32-24.52,49.18l26.41,72.16a548.37,548.37,0,0,0-131.92,85.12l-62.39-52.6c-17.69-14.91-44.18-13.88-59.14,2.38l-39.92,43.39c-15.06,16.37-12.7,41.72,5.24,56.55l64.73,53.53a524.59,524.59,0,0,0-67.09,139.85l-86.67-16.12c-23.33-4.34-45.62,9.78-49.7,31.54l-10.87,57.87c-4.08,21.76,11.62,42.72,35,46.81l89.16,15.59a519.55,519.55,0,0,0,16.54,151.31l-86.87,29.82c-22.15,7.6-33.56,30.47-25.44,51l21.55,54.47c8.07,20.42,32.45,30.63,54.4,22.87l88-31.14a538.34,538.34,0,0,0,91.19,118.5L2083.26,1733c-14.71,16.83-12.44,41.27,5,54.51l46.25,35c17.3,13.09,43,10.09,57.51-6.66l60-69.46A548.26,548.26,0,0,0,2388,1802.25l-16.32,86.93c-3.89,20.7,10.33,39.69,31.68,42.39l56.43,7.14c21.08,2.67,41.24-11.78,45.08-32.26l16.15-86A552.06,552.06,0,0,0,2664.07,1804l28.82,78.77c6.89,18.81,28.22,27.75,47.61,20l51.3-20.48c19.18-7.65,29.25-29,22.53-47.66l-27.82-77.33a547,547,0,0,0,115.6-81.34l61.12,50.55c15,12.4,37.59,9.76,50.47-5.85l34.14-41.38c12.8-15.52,11.19-38.17-3.62-50.65l-58.95-49.7a524.4,524.4,0,0,0,61.63-126.07l73.8,12.91c19,3.33,37.38-9.82,41.05-29.37l9.75-52C3175.17,1364.94,3162.8,1346.25,3143.81,1342.72ZM2483,1661.55c-213.65-32-360.29-229.93-320.64-441.16s248.54-344.8,459.74-299.8c204,43.46,334.2,238.46,297,436.86S2689.39,1692.43,2483,1661.55Z"/><path class="cls-21" d="M2892.58,2548l-37.93-7a274.84,274.84,0,0,0-4.13-75l35.54-12.57a19.28,19.28,0,0,0,11.52-24.36l-8.92-26.76a18.81,18.81,0,0,0-23.82-12.2l-35,12A283,283,0,0,0,2788,2337l24.08-27.86c6.91-8,6-20.38-2-27.71l-21.41-19.58c-8.09-7.41-20.35-6.93-27.37,1.1l-24.06,27.53a288.63,288.63,0,0,0-71.19-37.2l6.89-36.71c2-10.83-5.15-21.69-16.08-24.27l-29.25-6.88c-11.07-2.61-21.74,4.15-23.8,15.1l-7,37.11a292.09,292.09,0,0,0-82.47,3.23l-13.4-37.25a22.45,22.45,0,0,0-27.13-13.9l-29.58,8.77a19.69,19.69,0,0,0-13,26l14,38.16a290.06,290.06,0,0,0-69.75,45l-33-27.81c-9.35-7.89-23.36-7.34-31.27,1.26l-21.11,22.94c-8,8.66-6.71,22.06,2.77,29.91l34.23,28.31a277.64,277.64,0,0,0-35.48,73.95l-45.83-8.52c-12.33-2.29-24.12,5.17-26.28,16.68l-5.74,30.6c-2.16,11.51,6.14,22.59,18.5,24.76l47.14,8.24a275.06,275.06,0,0,0,8.74,80l-45.93,15.77c-11.72,4-17.75,16.11-13.45,27l11.39,28.81c4.27,10.79,17.16,16.19,28.76,12.09l46.56-16.47a285,285,0,0,0,48.22,62.67l-31.92,36.52c-7.78,8.9-6.58,21.82,2.67,28.83l24.46,18.52c9.14,6.92,22.75,5.33,30.4-3.52l31.75-36.74a289.64,289.64,0,0,0,71.86,29.54l-8.63,46c-2.06,11,5.46,21,16.75,22.42l29.84,3.77c11.14,1.41,21.8-6.23,23.83-17.06l8.54-45.47a292.19,292.19,0,0,0,75.64-8.68l15.24,41.65c3.64,10,14.92,14.68,25.18,10.58l27.12-10.83c10.14-4,15.47-15.32,11.91-25.2l-14.7-40.9a289.48,289.48,0,0,0,61.12-43l32.32,26.72c7.93,6.56,19.87,5.17,26.68-3.09l18.06-21.88c6.77-8.21,5.91-20.19-1.92-26.79l-31.17-26.28a277,277,0,0,0,32.59-66.67l39,6.83c10.06,1.76,19.76-5.2,21.7-15.53l5.16-27.49C2909.16,2559.75,2902.62,2549.86,2892.58,2548Zm-349.42,168.62c-113-16.89-190.5-121.59-169.53-233.29s131.42-182.34,243.1-158.55c107.88,23,176.71,126.1,157,231S2652.29,2732.94,2543.16,2716.61Z"/><polygon class="cls-21" points="2511.09 2195.23 2484.26 2189.23 2470.41 2211.7 2511.09 2195.23"/><polygon class="cls-21" points="2776.75 2256.68 2807.83 2262.83 2803.52 2285.8 2776.75 2256.68"/><polygon class="cls-21" points="2874.62 2389.75 2905.42 2396.83 2894.4 2412.75 2874.62 2389.75"/><polygon class="cls-21" points="2895.2 2548.82 2926.08 2557.19 2912.99 2570.48 2895.2 2548.82"/><polygon class="cls-21" points="2802.68 2754.13 2832.28 2764.18 2840.66 2740.05 2802.68 2754.13"/><polygon class="cls-21" points="2665.25 2844.32 2691.63 2854.42 2697.59 2834.65 2665.25 2844.32"/><polygon class="cls-21" points="2519.59 2867.11 2495.88 2858.16 2522.88 2830.77 2519.59 2867.11"/><polygon class="cls-21" points="2391.7 2815.78 2364.25 2804.53 2391.3 2781.97 2391.7 2815.78"/><polygon class="cls-21" points="2327.26 2274.15 2356.88 2280.67 2341.01 2300.19 2327.26 2274.15"/><polygon class="cls-21" points="2224.1 2496.74 2250.66 2505.9 2252.68 2483.14 2224.1 2496.74"/><polygon class="cls-21" points="2252.05 2671.32 2277.93 2680.68 2283.43 2663.39 2252.05 2671.32"/><path class="cls-22" d="M2922.75,2556.21l-38.24-7.11a277.34,277.34,0,0,0-4.17-75.59l35.84-12.67c9.79-3.46,15-14.45,11.61-24.56l-9-27a19,19,0,0,0-24-12.3l-35.32,12.12a286.08,286.08,0,0,0-42.21-65.62l24.28-28.08c7-8.06,6.08-20.55-2-27.94l-21.59-19.75c-8.16-7.46-20.52-7-27.59,1.12l-24.26,27.75a291.06,291.06,0,0,0-71.79-37.51l6.95-37a21.43,21.43,0,0,0-16.21-24.46l-29.5-6.94c-11.16-2.63-21.92,4.18-24,15.22l-7,37.42a294.74,294.74,0,0,0-83.16,3.25l-13.5-37.56a22.65,22.65,0,0,0-27.36-14l-29.83,8.84a19.86,19.86,0,0,0-13.07,26.22l14.08,38.47a292.24,292.24,0,0,0-70.33,45.38l-33.26-28c-9.44-8-23.56-7.4-31.53,1.27l-21.28,23.13c-8,8.73-6.78,22.24,2.79,30.15l34.51,28.54a279.62,279.62,0,0,0-35.77,74.56l-46.21-8.59c-12.44-2.32-24.32,5.21-26.5,16.81l-5.79,30.85c-2.18,11.6,6.19,22.78,18.66,25l47.53,8.31a277,277,0,0,0,8.82,80.67l-46.32,15.9c-11.81,4-17.89,16.24-13.56,27.2l11.49,29c4.3,10.89,17.3,16.33,29,12.19l46.94-16.6a287.46,287.46,0,0,0,48.62,63.18l-32.18,36.82c-7.84,9-6.63,22,2.69,29.06l24.66,18.68c9.22,7,22.94,5.37,30.66-3.55l32-37a292,292,0,0,0,72.45,29.78l-8.7,46.35c-2.07,11,5.51,21.16,16.89,22.6l30.09,3.81c11.24,1.42,22-6.28,24-17.2l8.61-45.85a294,294,0,0,0,76.27-8.75l15.36,42c3.67,10,15,14.8,25.39,10.67l27.34-10.91c10.23-4.09,15.6-15.45,12-25.41l-14.83-41.23a292.08,292.08,0,0,0,61.63-43.37l32.58,26.95c8,6.61,20,5.21,26.91-3.12l18.2-22.06c6.83-8.27,6-20.35-1.93-27l-31.43-26.5a279.43,279.43,0,0,0,32.86-67.21l39.35,6.88c10.14,1.77,19.92-5.24,21.88-15.66l5.2-27.7C2939.47,2568.06,2932.87,2558.09,2922.75,2556.21Zm-352.31,170c-113.9-17-192.08-122.59-170.94-235.2s132.51-183.83,245.11-159.84c108.77,23.17,178.17,127.14,158.32,232.91S2680.48,2742.65,2570.44,2726.19Z"/><ellipse class="cls-22" cx="2493.05" cy="1540.75" rx="175.34" ry="246.41"/><path class="cls-18" d="M1957.15,943.67h-330c-338.39,0-612.7,274.31-612.7,612.7h0c0,180.57,146.37,326.94,326.94,326.94h901.53c180.57,0,327-146.37,327-326.94h0C2569.86,1218,2295.54,943.67,1957.15,943.67Z"/><path class="cls-18" d="M1899.2,2553.28H1685.09c-219.53,0-397.5-178-397.5-397.5h0c0-117.15,95-212.11,212.11-212.11h584.89c117.15,0,212.11,95,212.11,212.11h0C2296.7,2375.32,2118.73,2553.28,1899.2,2553.28Z"/><path class="cls-23" d="M2256.71,1751.16H1629.39c-85,0-154.76-65.17-154.76-145.55V1482.35c0-80.38,69.75-143.32,154.76-140.61l627.32,20c75.92,2.43,136.78,64.92,136.78,139.62v114.54C2393.49,1690.6,2332.63,1751.16,2256.71,1751.16Z"/><path class="cls-18" d="M1830.38,1537.44c0,53.68-45.7,96.62-102.52,95.9-57.35-.72-104.21-45.54-104.21-100.1s46.86-97.48,104.21-95.88C1784.68,1439,1830.38,1483.76,1830.38,1537.44Z"/><path class="cls-18" d="M2254.32,1546.06c0,51.87-42.68,93.39-95.74,92.72-53.52-.67-97.24-44-97.24-96.65s43.72-94.19,97.24-92.69C2211.64,1450.92,2254.32,1494.18,2254.32,1546.06Z"/><path class="cls-24" d="M2019.8,1797.37c-93.3-109.62-51.84-197.28-173.81-345.83-167.83-204.4-363.61-181.27-408.45-319.9-12.43-38.41-13.85-91.14,19.48-164-255.62,73.73-442.58,309.39-442.58,588.75h0c0,180.57,146.37,326.94,326.94,326.94h785.67C2080,1857.66,2045.6,1827.7,2019.8,1797.37Z"/><ellipse class="cls-22" cx="1102.61" cy="1539.03" rx="175.34" ry="246.41"/><ellipse class="cls-25" cx="963.9" cy="1539.03" rx="76.67" ry="107.75"/><path class="cls-26" d="M1951.93,2334.45c-29.38-137.95-354.3-134.62-363.13-224.79-6.81-69.51,179.74-138.33,203.18-147,20-7.4,40-13.66,59.65-19H1499.7c-117.14,0-212.11,95-212.11,212.11h0c0,219.54,178,397.5,397.5,397.5H1899.2a401.06,401.06,0,0,0,60.51-4.57c-18.64-23.1-30.78-48.35-33.72-75.93C1919.47,2411.67,1963.31,2387.91,1951.93,2334.45Z"/><ellipse class="cls-22" cx="1797.42" cy="1955.48" rx="338.14" ry="40.94"/><path class="cls-27" d="M2925.75,1921.64c-57.74-22.14-120.86-11-171.73,24.3-18.59-92.91-77.64-171.55-165.58-205.27-144.09-55.26-311.15,31-373.14,192.65a345,345,0,0,0-23.17,125.48,138.16,138.16,0,0,0-23.81-11.89c-78.72-30.19-170,16.94-203.87,105.26s1.33,187.61,81.22,214.58c42.66,14.41,110.17,14.67,110.17,14.67s656.67-48.9,676.93-48.73c80.89.68,160.62-54.66,194.46-142.92C3069.56,2079.41,3024.12,1959.37,2925.75,1921.64Z"/><path class="cls-28" d="M2945.27,1921.72c-57.73-22.14-120.86-11-171.73,24.3-18.58-92.91-77.63-171.55-165.57-205.27-144.09-55.26-311.16,31-373.15,192.64a345.43,345.43,0,0,0-23.17,125.49,137.35,137.35,0,0,0-23.8-11.89c-78.73-30.19-170,16.94-203.88,105.26s2.5,184.39,81.22,214.58c16.66,6.39,110.18,14.67,110.18,14.67s656.67-48.9,676.93-48.73c80.89.67,160.61-54.66,194.46-142.92C3089.08,2079.49,3043.64,1959.45,2945.27,1921.72Z"/><path class="cls-18" d="M1390.49,2066.06a58.84,58.84,0,0,0-8.21,82.8L1552,2356l91-74.59-169.73-207.1A58.84,58.84,0,0,0,1390.49,2066.06Z"/><path class="cls-18" d="M1922.52,2262a58.83,58.83,0,0,0-65.11-51.81l-266.05,30.25,13.3,116.92,266-30.25A58.84,58.84,0,0,0,1922.52,2262Z"/><circle class="cls-29" cx="1591.36" cy="2309.62" r="85.37" transform="translate(-1167.05 1801.73) rotate(-45)"/><path class="cls-30" d="M1868.21,2221.05l43.94,107.85c6.53,16,31.3,20.81,50.2,9.43,27.69-16.68,58-45.13,45.74-86.27-15.46-52.06-61.45-67-99.29-70.09C1883.12,2179.9,1860.41,2201.91,1868.21,2221.05Z"/></g></g></svg>